<svg width="1250" xmlns="http://www.w3.org/2000/svg" height="1250" viewBox="0 0 1000 1000">
<path fill="#fff" d="m0,0h1000v1000h-1000v-1000Z"/>
<path fill="#9d8213" d="m475.2,66.25c8.38-6.08 18.97-10.28 29.46-8.79 7.53,1.89 16.36,4.21 21.43,10.56-10.33-3.98-21.37-6.93-32.51-5.68-6.58,.01-12.23,3.77-18.56,4.84l.18-.93Z"/>
<path fill="#a48815" d="m493.58,62.34c11.14-1.25 22.18,1.7 32.51,5.68 6,2.73 9.61,9.04 14.67,13.22 .08,.43 .24,1.29 .33,1.73-11.41-8.62-24.17-17.12-39.07-17.03-12.43-1.14-24.5,3.67-34.63,10.49-2.9,1.72-5.09,4.74-8.43,5.64 2.04-2.65 3.68-5.78 6.74-7.44 3.19-2.31 5.25-6.51 9.32-7.45 6.33-1.07 11.98-4.83 18.56-4.84Z"/>
<path fill="#aa8e16" d="m467.39,76.43c10.13-6.82 22.2-11.63 34.63-10.49 14.9-.09 27.66,8.41 39.07,17.03 6.74,6.6 11.44,15.36 16.55,23.35 1.2,2.19 3.15,4.09 3.42,6.69-2.9-1.83-4.11-5.29-6.23-7.83-10.62-15.05-24.29-29.57-42.73-34.29-7.23-1.25-14.76-2.94-22-.68-15.47,3.27-28.57,13.5-38.52,25.41-5.02,5.42-8.56,12.07-13.59,17.43 .3-3.08 2.71-5.37 4.09-7.99 5.29-7.85 10.02-16.56 16.88-22.99 3.34-.9 5.53-3.92 8.43-5.64Z"/>
<path fill="#af9418" d="m490.1,70.21c7.24-2.26 14.77-.57 22,.68 18.44,4.72 32.11,19.24 42.73,34.29 2.12,2.54 3.33,6 6.23,7.83 11.1,18.15 18.88,38.28 26.78,58.08 13.47,35.93 25.42,72.57 34.22,109.91-4.35-10.32-7.14-21.78-10.45-32.68-8.44-28.39-17.58-56.63-28.92-84.02-10.83-26.44-23.28-52.93-42.92-74.08-8.33-7.94-18.24-14.96-29.73-17.28-17.6-4.33-35.93,3.34-48.48,15.58-13.98,12.96-23.86,29.66-32.58,46.47-19.64,37.47-33.19,77.68-46.44,117.73-4.15,11.28-6.01,23.58-11.61,34.27 0-1.26 .15-2.49 .47-3.69 16.19-54.01 33.72-108.01 59.59-158.3 2.16-4.05 3.67-8.65 7-11.95 5.03-5.36 8.57-12.01 13.59-17.43 9.95-11.91 23.05-22.14 38.52-25.41Z"/>
<path fill="#b29719" d="m461.56,88.52c12.55-12.24 30.88-19.91 48.48-15.58 11.49,2.32 21.4,9.34 29.73,17.28 19.64,21.15 32.09,47.64 42.92,74.08 11.34,27.39 20.48,55.63 28.92,84.02 3.31,10.9 6.1,22.36 10.45,32.68 2.44,5.11 3.77,11.54 4.61,17.34-1.21-1.59-2.22-3.33-2.85-5.22-5.96-14.87-9.52-30.52-14.21-45.8-7.99-27.46-17.22-54.58-27.8-81.16-9.75-23.42-20.33-46.81-36.17-66.84-8.4-9.08-17.36-18.5-29.31-22.68-17.39-6.85-37.38-1.33-51.01,10.71-21.48,18.98-34.11,45.43-45.95,70.98-16.53,37.17-29.48,75.81-41.36,114.67-3.7,10.38-5.91,21.72-12.05,30.98 1.67-5.58 2.15-11.83 4.97-16.99 5.6-10.69 7.46-22.99 11.61-34.27 13.25-40.05 26.8-80.26 46.44-117.73 8.72-16.81 18.6-33.51 32.58-46.47Z"/>
<path fill="#b69a1a" d="m465.32,87.35c13.63-12.04 33.62-17.56 51.01-10.71 11.95,4.18 20.91,13.6 29.31,22.68 15.84,20.03 26.42,43.42 36.17,66.84 10.58,26.58 19.81,53.7 27.8,81.16 4.69,15.28 8.25,30.93 14.21,45.8 .63,1.89 1.64,3.63 2.85,5.22 1.57,2.94 2.19,6.34 2.37,9.65-5.54-7.66-7.97-17.11-11.24-25.86-12.83-44.12-25.54-88.48-44.35-130.5-8.44-18.94-17.88-37.73-31.56-53.5-10.97-13.61-27.9-23.86-45.9-22.18-9.96,.39-18.99,5.51-26.94,11.12-13.42,10.5-22.96,24.84-31.65,39.29-28.67,52.28-45.7,109.79-63.78,166.3-3.01,7.4-5.11,15.43-10.34,21.64 .44-3.47 .98-7.29 2.68-10.32 6.14-9.26 8.35-20.6 12.05-30.98 11.88-38.86 24.83-77.5 41.36-114.67 11.84-25.55 24.47-52 45.95-70.98Z"/>
<path fill="#b99e1b" d="m469.05,87.07c7.95-5.61 16.98-10.73 26.94-11.12 18-1.68 34.93,8.57 45.9,22.18 13.68,15.77 23.12,34.56 31.56,53.5 18.81,42.02 31.52,86.38 44.35,130.5 3.27,8.75 5.7,18.2 11.24,25.86 1.4,1.68 1.5,4.2 1.66,6.32-6.98-8.76-10.16-19.8-13.88-30.18-15.76-52.9-30.54-106.61-56.21-155.78-10.99-18.96-23.94-39.45-45.24-47.82-12.63-4.81-27.62-3.45-39.14,3.7-24.02,14.93-36.91,41.38-49.23,65.77-10.34,22.06-19.2,44.81-27.24,67.8-10.18,27.17-17.09,55.41-27.47,82.5-3.07,6.41-4.89,13.87-10.07,18.96-.51-1.77 .11-3.47 1.06-4.96 5.23-6.21 7.33-14.24 10.34-21.64 18.08-56.51 35.11-114.02 63.78-166.3 8.69-14.45 18.23-28.79 31.65-39.29Z"/>
<path fill="#bca11c" d="m476.23,84.23c11.52-7.15 26.51-8.51 39.14-3.7 21.3,8.37 34.25,28.86 45.24,47.82 25.67,49.17 40.45,102.88 56.21,155.78 3.72,10.38 6.9,21.42 13.88,30.18 .49,1.62 1.16,3.24 1.07,4.97-4.28-3.78-6.22-9.34-8.8-14.27-6.35-13.05-9.71-27.21-13.96-41.01-7.83-27.78-16.38-55.35-26.73-82.3-10.1-26.16-21.11-52.39-37.87-75.08-7.37-10.62-17.61-19.54-29.7-24.3-10.89-4.42-23.32-3.64-33.73,1.65-19.02,8.98-30.98,27.31-41.05,45.01-11.93,21.05-21.34,43.39-30.04,65.92-7.45,20.5-15.36,40.87-21.22,61.89-7.71,22.1-12.8,45.45-25.23,65.61-.86,1.45-2.05,2.66-3.26,3.84-.18-2.41 .36-5.18 2.04-6.98 5.18-5.09 7-12.55 10.07-18.96 10.38-27.09 17.29-55.33 27.47-82.5 8.04-22.99 16.9-45.74 27.24-67.8 12.32-24.39 25.21-50.84 49.23-65.77Z"/>
<path fill="#c0a41d" d="m480.98,83.97c10.41-5.29 22.84-6.07 33.73-1.65 12.09,4.76 22.33,13.68 29.7,24.3 16.76,22.69 27.77,48.92 37.87,75.08 10.35,26.95 18.9,54.52 26.73,82.3 4.25,13.8 7.61,27.96 13.96,41.01 2.58,4.93 4.52,10.49 8.8,14.27 1.08,1.71 1.4,3.69 1.25,5.69-7.88-7.95-12.02-18.7-16.06-28.95-8.95-24.88-14.55-50.84-23.37-75.77-9.55-29.48-20.17-58.75-34.57-86.26-9.79-18.68-21.51-38.23-41.07-47.94-4.86-1.67-9.57-4.67-14.93-4.07-18.78-1.88-35.42,10.65-46.18,24.84-24.13,32.3-38.22,70.48-52.13,107.95-6.65,18.93-13.03,37.93-18.84,57.13-5.67,19.04-11.72,38.43-22.83,55.12-1,1.64-2.45,2.95-4.06,3.97 .1-1.63-.43-3.72 1.2-4.75 1.21-1.18 2.4-2.39 3.26-3.84 12.43-20.16 17.52-43.51 25.23-65.61 5.86-21.02 13.77-41.39 21.22-61.89 8.7-22.53 18.11-44.87 30.04-65.92 10.07-17.7 22.03-36.03 41.05-45.01Z"/>
<path fill="#c3a81e" d="m456.84,106.82c10.76-14.19 27.4-26.72 46.18-24.84 5.36-.6 10.07,2.4 14.93,4.07 19.56,9.71 31.28,29.26 41.07,47.94 14.4,27.51 25.02,56.78 34.57,86.26 8.82,24.93 14.42,50.89 23.37,75.77 4.04,10.25 8.18,21 16.06,28.95 1.46,1.32 1.11,3.66 1.59,5.45-14.71-13.77-19.82-34.25-26.17-52.66-13.49-48.33-28.46-96.53-50.47-141.75-7.43-13.68-15.62-27.21-26.86-38.13-11.62-10.65-29.08-17.45-44.47-11.29-11.47,3.7-19.86,12.63-27.79,21.23-14.86,19.44-25.76,41.49-35.01,64.04-11.52,26.76-20.83,54.39-30.03,82.01-9.6,28.63-15.11,60.64-36.58,83.39 .38-2.05 .19-4.81 1.75-6.27 1.61-1.02 3.06-2.33 4.06-3.97 11.11-16.69 17.16-36.08 22.83-55.12 5.81-19.2 12.19-38.2 18.84-57.13 13.91-37.47 28-75.65 52.13-107.95Z"/>
<path fill="#c8ac1f" d="m486.64,86.59c15.39-6.16 32.85,.64 44.47,11.29 11.24,10.92 19.43,24.45 26.86,38.13 22.01,45.22 36.98,93.42 50.47,141.75 6.35,18.41 11.46,38.89 26.17,52.66 .6,1.53 1.18,3.09 1.36,4.75-7.46-4.65-11.41-12.96-15.83-20.25-12.04-24.48-17.23-51.49-25.74-77.25-6.79-22.85-14.76-45.36-23.59-67.51-9.28-21.97-18.72-44.37-34.07-62.9-9.53-10.4-21.66-20.98-36.72-20.33-6.85-1.02-13.26,2.01-19.26,4.83-12.59,7.37-22.34,18.83-29.73,31.25-13.07,20.46-22.69,42.84-31.58,65.35-10.95,27.31-20.11,55.3-28.81,83.38-6.37,20.4-12.28,41.51-24.67,59.24-3.1,3.55-5.52,7.97-9.84,10.22-.13-1.43 .46-2.72 1.1-3.94 21.47-22.75 26.98-54.76 36.58-83.39 9.2-27.62 18.51-55.25 30.03-82.01 9.25-22.55 20.15-44.6 35.01-64.04 7.93-8.6 16.32-17.53 27.79-21.23Z"/>
<path fill="#cbb020" d="m480.76,91.76c6-2.82 12.41-5.85 19.26-4.83 15.06-.65 27.19,9.93 36.72,20.33 15.35,18.53 24.79,40.93 34.07,62.9 8.83,22.15 16.8,44.66 23.59,67.51 8.51,25.76 13.7,52.77 25.74,77.25 4.42,7.29 8.37,15.6 15.83,20.25 .01,.7 .03,2.1 .04,2.81-3.55-.72-5.28-4.09-7.41-6.63-13.74-16.36-19.51-37.34-25.64-57.33-7.76-27.92-16.09-55.7-26.17-82.88-9.3-24.89-19.37-49.72-33.75-72.17-7.91-11.46-17.83-22.69-31.13-27.86-14.35-5.25-30.62,.23-41.19,10.6-17.65,16.05-27.22,38.41-37.68,59.33-8.5,19.59-16.59,39.38-23.49,59.6-10.48,28.21-18.1,57.34-28.25,85.66-3.82,9.36-8.16,18.59-14.37,26.64-3.55,4.09-6.16,9.74-11.74,11.33 .26-1.04 .57-2.07 .94-3.07 4.32-2.25 6.74-6.67 9.84-10.22 12.39-17.73 18.3-38.84 24.67-59.24 8.7-28.08 17.86-56.07 28.81-83.38 8.89-22.51 18.51-44.89 31.58-65.35 7.39-12.42 17.14-23.88 29.73-31.25Z"/>
<path fill="#cfb321" d="m470.72,101.71c10.57-10.37 26.84-15.85 41.19-10.6 13.3,5.17 23.22,16.4 31.13,27.86 14.38,22.45 24.45,47.28 33.75,72.17 10.08,27.18 18.41,54.96 26.17,82.88 6.13,19.99 11.9,40.97 25.64,57.33 2.13,2.54 3.86,5.91 7.41,6.63 1.88,.42 .61,3.07 .7,4.38-16.85-12.67-24.9-33.2-31.28-52.6-14.22-49.08-28.13-98.6-50.42-144.77-7.92-16.67-17.37-33.32-31.98-45.03-9.44-6.71-21.5-10.42-32.95-6.87-18,5.4-29.7,21.74-38.78,37.22-9.99,16.78-17.88,34.69-25.19,52.77-11.12,27.39-20.95,55.31-29.51,83.59-6.9,21.04-12.17,43.01-23.85,62.1-5.04,7.34-10.25,15.39-18.34,19.68 .12-1.42 .46-2.81 .78-4.18 5.58-1.59 8.19-7.24 11.74-11.33 6.21-8.05 10.55-17.28 14.37-26.64 10.15-28.32 17.77-57.45 28.25-85.66 6.9-20.22 14.99-40.01 23.49-59.6 10.46-20.92 20.03-43.28 37.68-59.33Z"/>
<path fill="#d2b722" d="m490.08,93.09c11.45-3.55 23.51,.16 32.95,6.87 14.61,11.71 24.06,28.36 31.98,45.03 22.29,46.17 36.2,95.69 50.42,144.77 6.38,19.4 14.43,39.93 31.28,52.6 .96,.69 1.93,1.36 2.92,2.03 10.71,8.74 24.57,12.19 37.97,14.08 17.42,1.13 34.99,2.8 52.4,.68 29.6-.62 59.16,.41 88.7,2.17 28.02,2.75 57.1,4.41 83.27,15.77 15.58,6.09 29.95,21.06 28.09,38.92 .3,16.4-10.76,29.53-20.4,41.67-37.32,40.56-83.4,71.47-128.66,102.31-19.08,13.39-40.53,27.78-48.22,50.94-.33,1.31-.64,2.61-.95,3.93-5.66,15.98-3.66,33.41 .79,49.46 7.6,25.85 17.81,50.86 25.25,76.78 11.27,37.47 21.56,75.63 24.41,114.8 1.62,12.98-.29,26.57-5.99,38.4-5.4,11.26-17.25,19.17-29.68,20.2-14.08,2.07-27.75-3.29-40.48-8.64-26.19-11.93-50.54-27.5-74.13-43.86-24.29-16.39-46.89-35.1-70.17-52.86-12.74-9.35-26.35-18.17-41.8-22.18-4.34-.64-8.74-2.54-13.1-1.28-1.33-.36-2.65-.3-3.94,.13-20.95-.4-39.59,11.43-56.1,23.04-46.98,35.35-94.38,71.11-147.93,96.04-16.22,6.92-34.22,14.28-51.94,9.04-11.63-2.72-20.56-12.17-25.01-22.95-3.94-8.09-3.77-17.25-4.75-25.99 .71-27.26 7.86-53.79 14.57-80.05 10.03-36.01 23.08-71.04 35.75-106.18 4.65-17.33 9.5-36.28 3.52-53.89 .9-2 .16-2.72-.95-3.96-2.36-11.12-10-20.37-17.87-28.19-12.48-13.52-28.55-22.87-43.08-33.92-41.46-29.17-82.15-59.98-116.9-97.08-11.54-13.59-23.13-29.1-23.31-47.72 1.01-11.35 6.54-22.41 15.98-29.04 10.1-7.17 21.96-11.47 34.03-13.93 25.63-5.48 51.91-6.51 77.99-8.03 32.98-.24 65.98,.02 98.9,1.71 19.37-.35 40.44-2.3 56.45-14.4 .74-.57 1.43-1.18 2.07-1.86 8.09-4.29 13.3-12.34 18.34-19.68 11.68-19.09 16.95-41.06 23.85-62.1 8.56-28.28 18.39-56.2 29.51-83.59 7.31-18.08 15.2-35.99 25.19-52.77 9.08-15.48 20.78-31.82 38.78-37.22Z"/>
<path fill="#d5ba23" d="m493.34,94.42c9.66-1.85 19.78,.81 27.66,6.58 12.1,9.55 20.94,22.43 28,36 16.58,32.44 28.68,66.95 39.41,101.68 7.92,24.72 13.28,50.35 23.72,74.21 6.81,16.44 18.93,30.88 34.86,39.12 9.73,4.35 20.05,7.45 30.72,8.34 15.39,.89 30.9,3.06 46.28,.71 31.97-.46 63.87,.13 95.73,2.3 27.72,2.54 56.38,4.6 82.26,15.71 11.32,5.21 21.84,14.4 25.18,26.83 5.04,20.37-8.22,38.83-21.33,52.91-7.67,9.95-17.7,17.68-26.81,26.22-34.7,29.97-72.56,55.98-110.69,81.32-10.18,8.44-21.5,15.91-28.78,27.25-7.46,9.34-11.51,20.99-13.02,32.74-2.63,18.62 3.01,37.03 8.86,54.45 17.36,49.47 33.74,99.66 42.05,151.56 2.3,19.37 6.27,40.27-2.53,58.56-3.04,7.37-8.55,13.77-15.89,17.11-11.65,6.22-25.85,5.02-38.03,1.01-24.26-8.08-46.27-21.61-67.67-35.38-29.45-19.04-57.28-40.41-84.71-62.22-15.76-11.9-32.5-24.44-52.52-27.66-13.84-2.33-28.25-.55-40.99,5.33-23.4,10.49-42.3,28.29-63.18,42.78-20.35,15.24-41.41,29.57-63.01,43.01-20.7,12.75-41.96,24.82-64.82,33.28-12.48,3.83-26.59,7.09-39.17,1.95-10-3.49-17.68-12.12-21.05-22.04-6.05-17.91-3.66-37.2-.37-55.43 8.41-45.04 22.86-88.6 38.73-131.47 7.69-19.52 14.61-39.9 14.6-61.11-1.24-14.54-6.01-29.09-15.54-40.34-14.31-18.68-35.25-30.27-53.64-44.35-32.33-22.56-63.73-46.61-92.66-73.38-7.06-6.23-13.84-12.89-19.8-20.19-12.22-13.65-24.81-29.76-23.68-49.15 1.12-15.67 13.58-27.88 27.57-33.53 18.1-7.64 37.97-9.2 57.27-11.56 41.08-3.79 82.46-3 123.65-1.55 20.73,.05 42.46,1.5 61.86-7.21 21.43-8.63 35.3-29.03 42.79-50.12 11.39-30.61 19.27-62.39 30.92-92.92 6.74-18.87 14.28-37.46 22.44-55.77 10.45-20.79 20.12-43.3 38.99-58 4.98-3.38 10.51-6.01 16.34-7.58Z"/>
<path fill="#d8bd24" d="m495.33,96.39c13.36-2.25 25.4,5.9 34.29,14.95 12.34,14.33 20.67,31.54 28.34,48.67 14.05,33.14 25.5,67.29 35.28,101.89 5.05,17.21 9.46,34.67 16.69,51.13 7.45,17.71 20.45,33.69 38.15,41.85 13.2,5.62 27.64,7.95 41.92,8.24 10.91,1.46 22.05,1.25 32.99-.04 36.03-.5 72.03,.3 107.94,3.15 23.62,2.84 48.2,4.66 70.07,14.77 12.33,5.35 23.3,16.16 24.97,30.03 1.55,15.3-6.89,29.4-16.35,40.63-19.75,23.65-44.12,42.79-68.45,61.49-24.55,18.36-50.04,35.42-75.39,52.63-10.69,8.9-22.55,16.99-29.78,29.22-10.55,14.7-13.62,33.66-11.58,51.37 3.75,23.39 12.88,45.37 20.49,67.66 13.05,41.02 25.79,82.5 31.51,125.32 1.93,17.53 4.35,36.55-4.36,52.71-5.79,12.12-19.9,18.98-33.06,17.98-10.2,.58-19.62-3.67-28.97-7.11-44.43-19.9-83.72-49.33-122.22-78.74-19.15-14.63-37.31-31.81-60.56-39.66-7.36-3.36-15.53-2.8-23.25-4.42-13.02,.78-25.78,4.48-37.33,10.52-10.37,6.09-20.04,13.27-29.84,20.21-27.21,20.74-54.69,41.18-83.83,59.16-23.53,14.71-47.72,29.21-74.31,37.64-12.53,3.36-27.44,5.35-38.7-2.62-13.31-7.35-17.13-24.07-17.97-38.01 .06-27.28 7.64-53.76 13.94-80.08 4.87-16.86 10.07-33.53 15.62-50.16 9.71-30.72 25.33-60.1 27.4-92.77 .29-20.69-9.25-40.72-24.21-54.77-8.03-8.81-18.41-14.92-27.56-22.45-35.36-24.11-69.95-49.6-101.94-78.04-16.8-15.18-33.92-30.87-45.26-50.74-6.6-10.92-8.81-25.32-2.96-36.99 5.65-11.99 18.19-18.29 29.98-22.91 28.25-8.03 57.84-9.27 86.96-11.12 27,.43 54.07-.96 81,1.04 20.92-.56 42.81,2.31 62.8-5.4 14.44-4.36 26.53-14.47 35.3-26.54 14.43-21.74 20.38-47.45 28.34-71.84 11.14-36.09 23.87-71.84 39.67-106.2 7.74-16.42 16.09-32.96 28.46-46.43 6.65-7.54 15.64-13.7 25.77-15.22Z"/>
<path fill="#dbc025" d="m492.33,99.38c12.06-2.64 24.22,2.1 32.69,10.61 17.88,17.95 27.14,42.16 36.83,65.1 15.55,38.35 26.86,78.19 38.18,117.95 6.37,18.38 13.43,37.34 27.86,51.06 6.73,5.51 13.7,11.25 22.15,13.85 14.1,6.56 29.84,6.24 44.95,7.99 26.26,.49 52.45-2.18 78.73-.62 9.79,1.72 19.81-.27 29.63,1.09 27.67,1.67 55.55,3.78 82.47,10.89 9.23,2.98 18.21,7 25.98,12.91 9.74,8.66 15,23.22 10.21,35.79-5.4,16.66-18.08,29.71-30.26,41.75-23.9,23.78-51.45,43.57-78.84,63.13-15.49,10.93-31.13,21.65-46.98,32.05-16.14,12.42-33.03,26.18-39.83,46.14-8.75,23.79-2.97,49.72 5.29,72.72 16.01,45.46 31.01,91.41 40.01,138.88 2.58,15.99 5.3,32.08 4.63,48.34-.69,14.61-7.69,30.12-21.71,36.34-8.21,3.04-17.55,3.83-25.97,1.17-16.94-3.65-32.27-12.34-47.39-20.49-31.37-18.13-60.67-39.52-89.32-61.64-19.71-14.94-38.2-32.39-61.62-41.44-16.36-5.91-34.77-6.63-51.11-.09-15.89,5.33-28.92,16.19-42.53,25.57-35.28,27.28-71.66,53.35-110.47,75.43-12.11,7.07-24.74,13.23-37.82,18.3-10.33,4.67-21.82,6.51-33.11,5.87-12.46-1.65-23.44-10.71-27.42-22.69-6.21-18.31-2.49-37.74 .65-56.27 8.02-40.37 20.8-79.45 34.8-118.07 6.76-18.97 15.23-37.7 17.1-57.99 3.29-19.86-2.56-41.11-15.7-56.38-13.64-17.34-32.95-28.61-50.35-41.68-33.85-23.27-66.49-48.48-96.83-76.18-13.29-13.44-27.92-26.44-36.24-43.76-5.39-10.45-7.38-23.6-1.04-34.06 5.33-11.17 17.17-16.48 28.08-20.83 19.87-6.01 40.71-7.95 61.32-9.53 30.46-2.45 61.09-1.49 91.65-1.47 11.56,2.15 23.49-.48 35,1.78 6.28-1.1 12.65-.83 19-.98 11.33-1.44 22.71-3.83 33.01-8.91 14.48-7.26 25.69-19.68 33.01-34 12.3-23.59 17.94-49.75 26.38-74.79 13.22-40.01 27.37-80.01 47.81-117.01 8.78-14.8 19.85-30.52 37.12-35.83Z"/>
<path fill="#dec326" d="m495.34,101.47c15.21-2.73 28.12,8.31 36.74,19.46 21.7,32.7 33.99,70.43 46.52,107.29 9.54,28.02 15.51,57.22 26.46,84.76 8.1,20.83 23.51,40.04 45.14,47.65 25.8,9.41 53.86,7.01 80.81,7.38 12.25-1.23 24.73-1.86 36.98-.07 26.88-.37 53.69,1.27 80.36,4.48 21.56,3.12 44.67,5.99 62.32,19.95 10.54,8.71 13.28,24.71 7.76,36.97-6.74,16.32-19.79,28.79-32.17,40.91-35.3,32.79-75.21,60.15-115.26,86.76-18.38,12.91-37.69,27.24-46.17,48.89-4.42,9.06-4.47,19.32-5.81,29.11 1.19,28.68 13.67,54.97 22.11,81.94 10.14,30.23 19.16,60.9 25.7,92.14 3.76,18.73 7.45,37.73 7.15,56.92-.7,13.72-5.27,29.95-18.99,35.97-10.52,5.63-23.4,3.89-34.32,.45-26.36-9.82-50.42-24.8-73.67-40.43-25.45-16.45-49.08-35.46-72.98-54.03-15.99-12.97-33.35-25.53-53.73-30.28-10.41-1.76-21.26-2.94-31.6-.15-21.79,4.86-39.58,18.96-57.08,32.02-44.09,32.96-88.9,66.04-139.33,88.71-13.67,5.71-29.53,10.86-44.16,5.58-14.94-5.63-21.92-22.75-21.15-37.84-1.03-19.11 3.53-37.82 7.69-56.31 9.3-38.75 22.27-76.49 36.21-113.78 7.72-19.65 13.56-40.62 12.06-61.93-1.48-13.9-7.34-27.02-15.95-37.96-11.55-13.92-26.08-24.9-40.89-35.16-24.47-16.58-48.23-34.19-71.36-52.58-14.83-12.47-30.11-24.46-43.48-38.54-11.28-10.89-22.3-22.64-28.91-37.06-4.42-9.55-6.05-21.27-.28-30.65 9.29-15.99 28.66-21.33 45.6-24.45 42.42-7.02 85.47-6.96 128.34-6.49 11.24,1.97 22.75-.15 33.99,1.86 18.53,.08 37.68-.65 55-8.01 15.99-6.89 29.02-19.56 37.04-34.94 9.64-17.58 14.81-37.09 20.83-56.09 11.53-37.26 24.09-74.31 40.16-109.91 7.1-14.81 14.15-29.77 23.95-43.03 7.35-8.88 16.49-17.71 28.37-19.51Z"/>
<path fill="#e4c827" d="m491.69,105.65c7.41-2.9 15.18-.81 22.04,2.48-1.39,3.85 5.41,4.45 7.04,7.12 13.42,12.92 21.23,30.39 28.87,47.08 8.33,18.71 15.09,38.07 21.78,57.41 10.39,29.99 17.31,61.1 28,90.98 7.21,19.84 19.21,39.32 38.33,49.53 20.78,11.12 45.18,12.2 68.25,11.76 35.3,.39 70.66-1.07 105.9,1.21 27.24,2.51 55.37,3.59 81.07,13.86 11.5,4.67 23.08,14.55 23.04,27.93 .97,14.45-8.78,26.2-17.41,36.64-26.41,28.65-58.13,51.65-89.68,74.25-22.97,17.11-48.67,30.67-69.71,50.3-12.43,12.48-21.88,28.7-23.59,46.48-3.78,26.06 6.29,51.07 14.52,75.22 9.95,27.27 18.25,55.09 25.81,83.11 6.61,25.59 12.03,51.59 13.94,78 .45,14.24-3.61,30.45-16.65,38.24-11.78,6.57-26.12,3.38-37.94-1.54-20.72-7.97-39.41-20.13-58.05-31.98-31.47-20.3-60.67-43.83-90.24-66.74-11.06-8.48-22.84-16.28-35.99-21.04-17.08-5.9-36.09-6.51-53.13-.09-26.14,9.61-46.43,29.46-68.94,45.11-25.09,18.98-51.23,36.6-78.26,52.72-17.18,9.77-34.62,19.54-53.56,25.49-9.48,2.38-20.18,3.47-29.1-1.27-10.03-4.33-14.72-15.38-16.48-25.52-1.77-13.48 .17-27.04 2.67-40.28 7.48-38.62 19.36-76.21 32.68-113.15 7.84-22.6 18.29-44.72 20.35-68.84 2.45-14.76-1.25-29.69-7.3-43.1-6.37-11.48-14.87-21.63-24.87-30.11-23.7-18.55-49.31-34.45-73.08-52.91-20.95-15.87-41.37-32.49-60.76-50.24-14.01-14.42-30.73-28.44-36.56-48.44-3.33-8.54-.32-17.85 4.54-25.1 13.51-15.35 35.1-18.05 54.19-20.64 47.96-5.71 96.44-5.57 144.58-2.58 22.73,.42 46.94-.25 67.27-11.72 9.52-5.65 18.46-12.84 24.15-22.48-.01-.28-.04-.84-.05-1.12 16.55-28.19 23.71-60.81 33.67-91.72 13.24-38.05 26.55-76.39 46.18-111.75 8.03-12.91 17.16-27.65 32.48-32.56Z"/>
<path fill="#e6cb28" d="m497.32,108.4c12.09-1.14 22.15,7.17 29.28,15.96 13.14,17.68 21.4,38.26 29.56,58.55 15.32,38.79 26.08,79.12 37.96,119.06 6.96,19.94 15.94,40.57 33.11,53.79 18.08,14.07 41.58,17.28 63.76,18.26 51.82,.52 103.84-2.22 155.36,4.39 19.57,2.94 40.75,4.82 57.07,17.11 8.55,5.83 12.35,17.24 10.23,27.19-5.27,17.54-18.54,31.18-31.58,43.36-38.6,35.59-82.99,64.16-126.08,93.91-10.61,8.34-21.54,16.6-29.16,27.9-11.75,16.28-15.45,37.14-13.55,56.84 4.7,32.46 19.73,62.11 28.29,93.52 12.19,39.35 23.15,79.52 26.39,120.76-.08,11.84-1.83,25.41-11.68,33.28-8.15,7.84-21,8.09-31.28,4.73-15.3-4.31-29.25-12.22-43.04-19.94-41.09-24.53-79.06-53.78-116.3-83.71-11.31-7.4-22.31-15.6-35.35-19.71-1.52-.69-4.68-.81-4.16-3.16 2.98-.48 5.75,.99 8.5,1.93 23.48,9.25 41.8,27.24 61.66,42.22 31.93,24.27 64.35,48.23 99.69,67.35 14.01,7 28.71,15.31 44.95,13.97 13.1-1.21 21.88-13.29 23.5-25.57 2.45-22.1-2.51-44.05-7.25-65.51-6.4-29.55-15.2-58.51-24.8-87.15-7.48-24.79-19.28-48.62-21.45-74.73-2.84-18.44 1.56-37.87 11.46-53.63 16.45-23.84 42.15-38.45 65.6-54.36 31.36-21.15 62.08-43.43 90.23-68.77 12.25-12.26 26.27-24.14 31.75-41.22 3.57-10.15-.69-21.66-8.86-28.15-16.15-11.19-36.2-13.42-55.16-15.85-49.08-5.61-98.64-6.02-147.95-4.15-12.44-1.39-25.14-.28-37.36-3.46-14.91-3.25-29.72-9.51-40.52-20.54-12.48-11.31-20.22-26.83-25.54-42.6-9.81-27.98-16.19-57.04-26.01-85.02-10.18-30.43-20.86-61.01-36.92-88.93-5.95-10.68-14.47-20.85-26.66-24.32-6.37-2.49-13.09,.39-18.74,3.26-10.3,5.58-16.08,16.31-22.16,25.81-24.08,44.53-39.81,92.88-54.87,141.01-5.53,18.69-11.21,37.54-20.33,54.85-9.51,16.99-24.39,31.49-43.01,37.95-23.78,7.91-49.23,6.11-73.89,5.98-14.6-1.97-29.41,.24-44.01-1.72-29.35,.45-58.81,1.15-87.98,4.93-12.64,2.21-25.93,4.05-37.1,10.82-7.77,4.04-14.11,12.05-13.92,21.11-1.38,9.84 4.13,18.86 9.35,26.67 13.03,16.8 28.79,31.29 44.85,45.12 30.65,26.17 63.74,49.23 96.74,72.28 19.18,13.52 38.09,29.45 47.41,51.61 5.27,15.08 5.89,31.52 3.46,47.22-4.17,23.58-14.57,45.32-22.05,67.9-14.62,42.13-28.78,85-33.34,129.58-1.1,12.93 1.57,29.18 13.62,36.57 9.62,5.55 21.52,3.77 31.61,.63 29.15-10.79 55.38-27.8 81.36-44.57 29.24-19.01 56.59-40.69 84.59-61.45 1.83-1.39 3.94-2.37 6.17-2.92 5.83,.07-3.15,3.35-3.77,4.36-22.05,15.46-42.7,32.95-65.21,47.79-20.62,14.72-41.81,28.72-64.01,40.97-14.18,7.66-28.49,15.5-44.12,19.8-8.73,1.77-18.65,3.29-26.68-1.54-8.79-4.55-14.22-13.99-15.44-23.67-2.44-21.09 2.91-41.93 7.49-62.35 10.06-44.24 26.54-86.54 41.57-129.22 5.4-16.82 9.16-35.05 6.2-52.7-2.23-14.02-8.75-27.16-17.96-37.91-12.56-16.05-30.81-26.05-46.76-38.28-35.75-24.3-70.22-50.69-102.09-79.89-7.94-6.38-14.2-14.47-21.07-21.92-9.14-11.43-18.89-25.65-13.96-41.11 5.49-14.54 21.01-20.98 35.11-23.93 31.24-6.33 63.21-7.17 94.93-8.05 31.39-1.01 62.57,2.8 93.93,1.81 25.92-1.17 53.83-10.68 68.88-32.99 11.13-14.6 16.75-32.35 22.61-49.49 11.02-36.64 22.48-73.23 37.13-108.66 9.03-21.71 18.08-43.81 32.47-62.63 6.27-8.02 14.65-15.72 25.3-16.63Z"/>
<path fill="#e1c627" d="m513.73,108.13c14.44,6.92 22.09,22.28 29.28,35.86 22.53,44.75 36.43,93 50.16,140.97 5.67,18.55 11.42,37.78 23.42,53.41 8.34,11.02 19.52,19.65 32.55,24.44 11.69,4.81 24.45,5.54 36.85,7.13 46.58,.72 93.31-1.66 139.73,2.38 25.11,2.62 51.32,4.25 74.33,15.63 9.94,5.08 17.59,14.83 18.92,26.09 .12,13.42-7.19,25.41-15.67,35.25-15.93,18.77-34.98,34.55-54.3,49.71-16.54,12.94-33.42,25.49-51.01,36.99-22.62,16.43-48.33,29.77-65.82,52.19-11.72,14.46-15.84,33.57-15.15,51.83 1.67,20.02 8.51,39.06 15.4,57.76 16,47.3 31.46,95.23 37.92,144.94 1.81,15.7 3.37,33.06-5.56,47.08-6.49,11.05-20.69,14.84-32.71,13.05-18.38-3.41-34.81-13.1-50.99-21.98-25.91-15.12-50.7-32.14-74.47-50.42-22.02-15.96-41.97-34.93-65.91-48.1-9.46-4.1-19.3-7.84-29.71-8.27-16.69-2.26-33.48,2.91-47.93,11.02-22.74,13.3-42.42,31.02-64.12,45.87-26.39,19.07-53.44,37.38-82.16,52.81-15.73,8.17-31.84,17.36-49.8,19.2-9.95,2.44-21.29-1.23-28.28-8.67-8.01-8.19-9.64-20.33-9.75-31.29-.42-11.02 1.63-21.91 3.41-32.72 8.9-41.72 21.19-82.6 36.49-122.38 6.55-18.6 14.74-36.99 16.07-56.92 2.96-17.67-2.28-36.12-11.89-51.01-9.9-15.01-24.62-25.59-38.82-36.2-37.46-25.68-74.38-52.42-108.23-82.76-14.66-14-30.28-27.92-39.94-46.04-4.93-9.43-7.49-21.2-2.09-31 4.94-10.48 15.83-15.8 26.07-19.89 16.98-5.2 34.74-6.81 52.32-8.54 27.85-1.85 55.71-3.12 83.66-2.45 11.9,2.08 24.09-.3 35.99,1.84 27.12,.8 57.41,.28 79.97-17.01 5.53-4.73 11.24-9.65 15.3-15.79 .52-.11 1.57-.35 2.1-.46 .01,.28 .04,.84 .05,1.12-5.69,9.64-14.63,16.83-24.15,22.48-20.33,11.47-44.54,12.14-67.27,11.72-48.14-2.99-96.62-3.13-144.58,2.58-19.09,2.59-40.68,5.29-54.19,20.64-4.86,7.25-7.87,16.56-4.54,25.1 5.83,20 22.55,34.02 36.56,48.44 19.39,17.75 39.81,34.37 60.76,50.24 23.77,18.46 49.38,34.36 73.08,52.91 10,8.48 18.5,18.63 24.87,30.11 6.05,13.41 9.75,28.34 7.3,43.1-2.06,24.12-12.51,46.24-20.35,68.84-13.32,36.94-25.2,74.53-32.68,113.15-2.5,13.24-4.44,26.8-2.67,40.28 1.76,10.14 6.45,21.19 16.48,25.52 8.92,4.74 19.62,3.65 29.1,1.27 18.94-5.95 36.38-15.72 53.56-25.49 27.03-16.12 53.17-33.74 78.26-52.72 22.51-15.65 42.8-35.5 68.94-45.11 17.04-6.42 36.05-5.81 53.13,.09 13.15,4.76 24.93,12.56 35.99,21.04 29.57,22.91 58.77,46.44 90.24,66.74 18.64,11.85 37.33,24.01 58.05,31.98 11.82,4.92 26.16,8.11 37.94,1.54 13.04-7.79 17.1-24 16.65-38.24-1.91-26.41-7.33-52.41-13.94-78-7.56-28.02-15.86-55.84-25.81-83.11-8.23-24.15-18.3-49.16-14.52-75.22 1.71-17.78 11.16-34 23.59-46.48 21.04-19.63 46.74-33.19 69.71-50.3 31.55-22.6 63.27-45.6 89.68-74.25 8.63-10.44 18.38-22.19 17.41-36.64 .04-13.38-11.54-23.26-23.04-27.93-25.7-10.27-53.83-11.35-81.07-13.86-35.24-2.28-70.6-.82-105.9-1.21-23.07,.44-47.47-.64-68.25-11.76-19.12-10.21-31.12-29.69-38.33-49.53-10.69-29.88-17.61-60.99-28-90.98-6.69-19.34-13.45-38.7-21.78-57.41-7.64-16.69-15.45-34.16-28.87-47.08-1.63-2.67-8.43-3.27-7.04-7.12Z"/>
<path fill="#e9ce29" d="m486.27,115.26c5.65-2.87 12.37-5.75 18.74-3.26 12.19,3.47 20.71,13.64 26.66,24.32 16.06,27.92 26.74,58.5 36.92,88.93 9.82,27.98 16.2,57.04 26.01,85.02 5.32,15.77 13.06,31.29 25.54,42.6 10.8,11.03 25.61,17.29 40.52,20.54 12.22,3.18 24.92,2.07 37.36,3.46 49.31-1.87 98.87-1.46 147.95,4.15 18.96,2.43 39.01,4.66 55.16,15.85 8.17,6.49 12.43,18 8.86,28.15-5.48,17.08-19.5,28.96-31.75,41.22-28.15,25.34-58.87,47.62-90.23,68.77-23.45,15.91-49.15,30.52-65.6,54.36-9.9,15.76-14.3,35.19-11.46,53.63 2.17,26.11 13.97,49.94 21.45,74.73 9.6,28.64 18.4,57.6 24.8,87.15 4.74,21.46 9.7,43.41 7.25,65.51-1.62,12.28-10.4,24.36-23.5,25.57-16.24,1.34-30.94-6.97-44.95-13.97-35.34-19.12-67.76-43.08-99.69-67.35-19.86-14.98-38.18-32.97-61.66-42.22-2.75-.94-5.52-2.41-8.5-1.93-25.13-7.1-52.22-.34-73.38,14.15-2.23,.55-4.34,1.53-6.17,2.92-28,20.76-55.35,42.44-84.59,61.45-25.98,16.77-52.21,33.78-81.36,44.57-10.09,3.14-21.99,4.92-31.61-.63-12.05-7.39-14.72-23.64-13.62-36.57 4.56-44.58 18.72-87.45 33.34-129.58 7.48-22.58 17.88-44.32 22.05-67.9 2.43-15.7 1.81-32.14-3.46-47.22-9.32-22.16-28.23-38.09-47.41-51.61-33-23.05-66.09-46.11-96.74-72.28-16.06-13.83-31.82-28.32-44.85-45.12-5.22-7.81-10.73-16.83-9.35-26.67-.19-9.06 6.15-17.07 13.92-21.11 11.17-6.77 24.46-8.61 37.1-10.82 29.17-3.78 58.63-4.48 87.98-4.93 14.6,1.96 29.41-.25 44.01,1.72 24.66,.13 50.11,1.93 73.89-5.98 18.62-6.46 33.5-20.96 43.01-37.95 9.12-17.31 14.8-36.16 20.33-54.85 15.06-48.13 30.79-96.48 54.87-141.01 6.08-9.5 11.86-20.23 22.16-25.81Z"/>
<path fill="#ecd12a" d="m494.33,115.39c12.2-3.24 22.68,5.8 29.76,14.52 17.63,26.38 27.48,56.84 38.5,86.31 10.98,32.15 19.04,65.24 29.79,97.47 6.67,18.66 17.08,36.7 33.42,48.49 19.18,14.09 44.06,16.67 67.13,17.03 9.68,2.31 19.33-1.09 29.07-.23 45.55-.22 91.23-.42 136.36,6.45 14.4,2.78 29.71,5.24 41.47,14.74 8.05,6.97 10.38,19.47 5.18,28.84-8.44,18.35-24.91,31.16-39.37,44.59-20.35,17.2-41.78,33.17-63.64,48.4-23.72,16.87-49.34,31.39-70.79,51.2-7.26,8.7-14.83,17.6-18.6,28.47-6.69,18.54-7.14,38.97-2.13,57.98 4.63,19.89 12.19,38.9 18.98,58.11 13.82,43.84 27.81,88.23 32.49,134.23 1.4,13.84-.55,32.41-14.99,38.96-4.81,1.51-9.85,2.75-14.89,1.9-14.78-2.56-27.81-10.34-41.08-16.88-40.01-22.77-76.72-50.73-112.7-79.3-14.51-11.85-29.97-23.43-48.05-29.11-8.36-3.27-17.46-3.29-26.25-4.54-23.14,.77-44.98,10.86-62.92,25.08-46.3,34.84-92.75,70.43-145.08,95.88-13.76,6.09-29.49,13.44-44.34,6.42-11.6-6.35-13.54-21.09-13.35-33.12 2.06-28.1 10.12-55.28 17.64-82.3 9.3-31.93 21.63-62.91 32.72-94.27 5.3-19.06 9.73-39.42 4.8-59.05-3.03-17.05-13.75-31.43-25.67-43.45-20.63-18.52-44.63-32.66-66.87-49.09-17.55-13.02-35.19-26.02-51.68-40.35-17.42-14.44-34.55-29.58-48.41-47.58-5.53-8.77-11.76-19.4-7.68-30.06 3.65-12.8 17.77-17.4 29.19-20.68 29.48-5.77 59.66-7.74 89.66-7.54 6.39-.99 12.93-1.43 19.35-.5 14.48,1.81 29.2-.83 43.64,1.53 25.33-.12 52.2,2.65 76.09-7.81 20.44-7.69 35.2-25.51 44.26-44.83 9.01-20.01 14.35-41.31 21.09-62.06 9.87-32.25 21.23-64.15 34.72-95.12 6.34-14.21 12.7-28.52 21.6-41.36 5.59-7.29 12.39-14.88 21.58-17.37Z"/>
<path fill="#f1d62b" d="m476.07,136.04c6.58-8.76 16.8-18.71 28.8-14.83 14.85,5.67 22.61,21.15 28.89,34.73-.18,1.05-.38,2.12 .12,3.12 20.11,43.82 33.61,90.25 46.58,136.59 5.99,19.52 11.77,39.9 24.71,56.17 11.26,15.19 28.53,25.26 46.9,29.16 16.98,4.1 34.55,4.34 51.93,4.02 43.8,.35 87.78-1.56 131.38,3.52 14.98,1.18 29.88,3.61 44.32,7.82 8.16,2.86 16.7,7.59 19.71,16.28 2.32,7.6-.12,15.21-4.03,21.73-10.07,14.71-23.95,26.11-37.21,37.81-28.68,23.76-58.93,45.57-90.17,65.84-21.65,14.56-45.68,28.96-58.02,52.98-7.84,15.03-9.91,32.29-8.94,49.04 2.36,25.51 12.62,49.24 20.63,73.31 4.37,9.9 6.16,20.64 10.26,30.65 10.49,36.71 21.87,73.69 24.12,112.01 1.03,8.23-1.32,16.42-5.8,23.28-7.42,8.54-20.22,8.17-29.92,4.34-23.66-9.53-45.1-23.65-66.35-37.57-20.02-13.81-39.48-28.41-58.62-43.42-20.2-15.52-39.42-34.13-64.39-41.54-15.54-4.69-32.53-5.85-48.27-1.41-22.54,5.3-40.95,20.29-59.02,33.97-19.46,15.04-39.46,29.37-59.66,43.38-3.37,1.97-6.37,4.71-10.11,6 2.95-3.44 5.93-7 10.07-9.05 11.91-7.98 23.26-16.77 35.11-24.85 23.7-16.67 44.89-38.01 72.26-48.7 21.85-8.34 46.79-8.49 68.36,.86 11.74,4.33 21.7,12.11 31.9,19.14 29.75,23.8 59.62,47.52 91.45,68.52 20.18,12.7 40.23,26.41 63.13,33.79 4.19,.19 8.49,.63 12.71,.16 8.39-2.73 14.2-11.12 14.24-19.89 1.79-8.99-.27-18.05-1.19-27.01-8.94-52.03-25.32-102.35-43.1-151.92-7.2-19.43-11.25-40.24-10.68-60.98 2.08-17.41 7.76-35.05 19.41-48.48 9.11-11.67 21.5-20.07 33.37-28.64 35-22.89 69.9-46.14 101.99-73.04 12.06-9.84 23.82-20.17 34.09-31.9 6.65-7.55 12.46-17.27 9.66-27.75-5.27-11.87-18.89-15.08-30.31-17.73-36.71-6.85-74.19-7.48-111.38-8.57-30.68-.98-61.47,3.44-92.01-1.01-17.53-2.72-35.04-8.6-48.75-20.21-12.37-11.04-21.43-25.51-26.92-41.08-10.39-27.56-16.24-56.57-25.75-84.4-6.13-20.17-13.12-40.13-21.15-59.64-1.89-3.19-1.89-8.04-5.27-10-5.14-12.75-11.53-24.97-19.96-35.86-5.27-5.44-13.63-10.18-21.29-6.9-10.67,3.98-15.65,14.59-21.51,23.47-10.78,20.14-19.27,41.39-27.28,62.75-11.45,30.79-21.33,62.14-30.43,93.7-5.21,14.78-9.99,30.16-18.78,43.26-7.83,9.96-15.68,20.51-26.97,26.84-20.2,12.57-44.68,14.32-67.85,15.14 .21-.55 .62-1.66 .83-2.21 22.18-.95 45.54-2.99 64.86-15.07 13.2-7.92 23.46-20.03 30.23-33.76 7.62-14.51 12.47-30.28 17.11-45.94 .43-1.02 .27-2.1 .08-3.15 2.93-15.96 9.81-31.12 13.93-46.88 6.55-18.02 12.66-36.22 20.03-53.94 8.22-19.16 16.04-38.79 27.92-56.05Z"/>
<path fill="#f4d92c" d="m493.9,127.88c7.66-3.28 16.02,1.46 21.29,6.9 8.43,10.89 14.82,23.11 19.96,35.86-.25,.59-.73,1.78-.97,2.38 18.17,41.93 30.43,86.07 42.76,129.99 6.05,19.42 12.4,39.49 25.63,55.39 15.53,19.8 40.92,28.84 65.32,30.84 15.66,.73 31.46,3.09 47.11,.91 48.95-.47 98.26-.9 146.69,7.21 10.81,2.19 22.75,4.9 29.98,13.97 2.38,4.34 3.38,9.93 1.2,14.54-4.73,12.28-15.2,20.72-24.11,29.89-37.92,33.93-80.3,62.37-122.79,90.19-17.41,11.9-34.31,26.32-42.95,46.06-4.24,8.74-6.62,18.27-7.18,27.97-4.09,32.19 9.86,62.54 19.83,92.35 4.65,10.63 6.69,22.12 11.01,32.87 10.1,34.51 20.19,69.29 23.91,105.18 1.22,8.02-.25,16.62-4.76,23.44-5.59,7.51-15.93,7.07-23.94,4.34-8.24-2.95-16.39-6.38-23.7-11.23 .2-.52 .6-1.55 .8-2.07 11.44,3.42 21.34,12.23 34.02,11.2 4.97,.01 8.71-3.81 11.73-7.35 5.07-14.12 1.39-29.3-.96-43.6-7.06-35.36-17.01-70.08-28.64-104.18-6.99-22.01-16.47-43.28-20.94-66.03-3.36-20.65-4.08-42.72 4.35-62.27 3.88-10.26 10.66-19.11 17.69-27.4 17.55-17.42 39.31-29.62 59.78-43.2 27.87-19.14 55.48-38.8 81.16-60.85 10.91-9.72 22.86-18.92 30.16-31.85 1.81-4.09 3.86-8.96 1.59-13.26-4.56-10.88-17.69-12.93-27.81-15.28-46.61-7.75-94.03-8.02-141.14-7.72-14.3,.96-28.7,1.65-42.99,.16-22.48-.31-45.7-5.62-63.96-19.27-8.95-7.4-17.03-16.07-22.65-26.3-12.43-23.7-18-50.08-25.62-75.53-11.12-38.51-23.34-76.93-40.72-113.15-4.67-9.31-9.81-19.59-19.37-24.72-11.36-3.73-19.7,5.98-24.71,14.72-13.35,23.23-23.21,48.23-32.51,73.31-9.76,26.6-18.25,53.65-26.32,80.81-6.51,21.51-13.26,43.77-27.15,61.86-10.51,13.6-25.58,23.19-41.97,28.08-31.19,8.77-64.1,5.31-96,3.97-38.16,.02-76.55-1.28-114.41,4.49-9.38,2.21-19.8,3.2-27.42,9.68-5.95,5.37-4.96,14.42-1.14,20.77 7.54,11.84 18.27,21.04 28.31,30.67 24.73,21.88 50.77,42.28 77.86,61.17 22.98,17.3 48.95,31.04 68.96,52.03 17.76,19.11 24.63,46.25 22.42,71.8-1.37,19.96-8.25,38.97-15.41,57.49-17.34,47.63-35.23,95.73-41.63,146.29-1.65,8.84 .88,20.22 9.76,24.26 7.12,2.86 14.9-.01 21.67-2.7 27.63-11.77 52.32-29.2 77.39-45.48 .61-.12 1.84-.37 2.45-.49 .53,.35 1.6,1.04 2.13,1.38-25.5,17.67-51.75,34.61-80.05,47.49-5.42,2.42-11.12,4.16-17.02,4.92-8.62,.5-17.98-5.73-18.93-14.74-2.45-10.18-.4-20.64 1.42-30.73 9.23-48.3 25.82-94.72 43.18-140.59 10.21-27.33 16.85-58.18 7.3-86.67-6.46-17.68-18.45-33.22-33.52-44.43-11.59-9.28-24.1-17.28-36.37-25.6-40.09-28.65-80.42-57.65-114.68-93.29-7.03-7.85-14.78-17.82-11.69-29.1 1.64-4 4.05-8.16 8.38-9.66 9.59-5.62 20.91-6.82 31.72-8.28 20.34-2.42 40.82-3.95 61.31-3.7 23.33,.2 46.69-.61 69.99,.99 13.39-.64 26.65,1.67 40,.07 31.14-.5 64.72-13.9 79.78-42.72-.46-.31-1.4-.95-1.87-1.27 8.79-13.1 13.57-28.48 18.78-43.26 9.1-31.56 18.98-62.91 30.43-93.7 8.01-21.36 16.5-42.61 27.28-62.75 5.86-8.88 10.84-19.49 21.51-23.47Z"/>
<path fill="#f7db2d" d="m479.96,148.98c5.01-8.74 13.35-18.45 24.71-14.72 9.56,5.13 14.7,15.41 19.37,24.72 17.38,36.22 29.6,74.64 40.72,113.15 7.62,25.45 13.19,51.83 25.62,75.53 5.62,10.23 13.7,18.9 22.65,26.3 18.26,13.65 41.48,18.96 63.96,19.27 14.29,1.49 28.69,.8 42.99-.16 47.11-.3 94.53-.03 141.14,7.72 10.12,2.35 23.25,4.4 27.81,15.28 2.27,4.3 .22,9.17-1.59,13.26-7.3,12.93-19.25,22.13-30.16,31.85-25.68,22.05-53.29,41.71-81.16,60.85-20.47,13.58-42.23,25.78-59.78,43.2-7.03,8.29-13.81,17.14-17.69,27.4-8.43,19.55-7.71,41.62-4.35,62.27 4.47,22.75 13.95,44.02 20.94,66.03 11.63,34.1 21.58,68.82 28.64,104.18 2.35,14.3 6.03,29.48 .96,43.6-3.02,3.54-6.76,7.36-11.73,7.35-12.68,1.03-22.58-7.78-34.02-11.2-31.03-16.37-58.87-38.05-86.98-58.87-21.28-15.7-40.38-34.74-64.03-46.94-20.64-9.97-44.84-12.97-67.11-7.3-22.66,5.77-41.94,19.71-59.71,34.38-18.72,13.7-36.68,28.5-56.34,40.86-.61,.12-1.84,.37-2.45,.49-25.07,16.28-49.76,33.71-77.39,45.48-6.77,2.69-14.55,5.56-21.67,2.7-8.88-4.04-11.41-15.42-9.76-24.26 6.4-50.56 24.29-98.66 41.63-146.29 7.16-18.52 14.04-37.53 15.41-57.49 2.21-25.55-4.66-52.69-22.42-71.8-20.01-20.99-45.98-34.73-68.96-52.03-27.09-18.89-53.13-39.29-77.86-61.17-10.04-9.63-20.77-18.83-28.31-30.67-3.82-6.35-4.81-15.4 1.14-20.77 7.62-6.48 18.04-7.47 27.42-9.68 37.86-5.77 76.25-4.47 114.41-4.49 31.9,1.34 64.81,4.8 96-3.97 16.39-4.89 31.46-14.48 41.97-28.08 13.89-18.09 20.64-40.35 27.15-61.86 8.07-27.16 16.56-54.21 26.32-80.81 9.3-25.08 19.16-50.08 32.51-73.31Z"/>
<path fill="#f9de2e" d="m497.32,141.38c4.45-1.33 7.9,1.99 11.58,3.72 12.96,16.71 19.82,37.1 27.52,56.57 13.5,35.36 23.38,71.9 33.52,108.35 5.58,18.39 11.42,37.31 23.12,52.94 7.94,11.48 19.67,19.9 32.27,25.65 14.94,6.58 31.52,8.49 47.67,9.4 16.25,1.58 32.71,1.45 49,.07 35.02-.53 70.02,.24 104.93,3.2 15.27,1.69 30.94,2.68 45.4,8.34 4.88,2.3 10.91,5.95 9.67,12.38 .98,5.79-3.75,10.02-6.69,14.29-3.97,6.38-10.73,9.9-15.55,15.47-33.14,29.19-69.57,54.39-106.44,78.59-19.08,11.94-38.56,24.61-51.74,43.28-12.91,18.63-16.63,42.06-15.33,64.3 1.37,17.46 6.22,34.45 12.16,50.85 17.13,48.53 33.83,97.55 42.03,148.56 .17,7.18 3.05,14.62 .57,21.66-1.23,4.58-4.22,9.84-9.35,10.6-9.78,1.61-18.25-4.68-26.64-8.64-45.89-25.91-87.31-58.8-128.21-91.78-13.53-10.9-28.94-19.73-45.79-24.24-21.46-4.84-44.48-4.27-65.03,4.05-24.39,9.27-43.09,28.09-63.99,43.01-27.66,21.08-56.31,40.83-85.99,58.97-11.66,6.63-23.28,13.55-35.91,18.18-6.62,1.96-14.7,2.06-18.95-4.32-4.64-11.86-1.18-24.59 1.28-36.49 7.81-36.65 19.49-72.32 32.45-107.42 5.71-15.69 12.32-31.1 16.67-47.23 6.64-25.78 8.21-54.19-3.36-78.83-10.02-22.4-30.24-37.71-50.17-50.9-39.94-26.34-78.58-54.83-114.27-86.71-5.93-6.45-13.57-11.09-18.53-18.47-5.39-5.65-11.28-15-6.07-22.64 6.13-6.48 15.38-7.95 23.78-9.36 39.7-6.11 79.97-4.92 120-4.57 22.3,1.44 44.73,2.59 67.08,.76 17.45-1.9 35.28-5.87 49.93-16.06 6.81-4.35 12.05-10.56 17.81-16.15 18.3-24.14 24.39-54.42 33.39-82.68 10.96-36.68 23.43-73.01 38.96-108.05 5.01-10.97 9.96-22.02 17.1-31.84 2.83-2.91 6.04-5.87 10.12-6.81Z"/>
<path fill="#fbe02e" d="m498.29,150.31c2.31-.93 4.47,1.17 6.51,1.9 7.39,6.21 10.98,15.42 15.18,23.83 17.51,40.39 30.15,82.65 41.82,125.05 4.18,16.21 8.76,32.37 15.39,47.77 7.48,17.64 20.17,33.84 37.81,42.15 17.08,8.98 36.73,11.16 55.72,12.32 35.71,2.83 71.57-2.68 107.27,.59 23.41-.14 46.76,2.07 69.94,5.26 7.32,2.1 15.53,2.34 21.84,7.04 2.73,2.43 5.36,5.64 4.22,9.72-2.42,5.52-6.49,10.12-10.71,14.34-40.15,36.82-85.63,67.2-131.28,96.71-17.02,10.77-33.35,24.37-42.02,43-10.19,20.18-10.93,43.67-8.67,65.73 2.66,19.67 8.84,38.63 15.99,57.08 16.08,45.78 31.66,92.23 38.15,140.55 1.6,5.24-.36,10.39-1.65,15.43-3.29,3.63-8.93,5.08-13.47,2.81-8.51-2.76-15.81-8.1-23.64-12.25-36.52-22.76-71.18-48.39-104.37-75.72-13.91-11.41-28.11-23.27-45.03-29.91-17.29-7.63-36.7-8.36-55.29-7.63-20.7,2.1-40.39,10.55-57.07,22.82-43.53,33.77-87.3,67.69-135.57,94.52-8.14,4.52-16.63,10.12-26.37,9.61-3.47-.34-7.03-3.25-7-7.01-2.09-5.87-.77-12.1 .05-18.03 7.7-39.81 20.6-78.34 34.67-116.28 4.68-12.63 9.76-25.11 13.89-37.93 6-16.53 7.2-34.34 8.21-51.7-.68-12.96-2.31-26.21-7.68-38.16-5.28-14.09-15.47-25.6-26.47-35.55-22.78-17.52-47.67-32.09-70.46-49.57-25.56-18.09-50.02-37.79-73.13-58.85-7.31-6.33-14.96-13.05-19.06-22.01-2.95-9.57 7.58-13.86 14.98-14.96 46.14-8.51 93.4-6.06 140.02-4.99 20.58,1.78 41.48,1.65 62-1.03 16.94-2.8 34.5-7.75 47.73-19.23 17.37-13.24 25.72-34.46 32.71-54.49 17.38-57.67 33.6-116.46 61.63-170.19 3.17-5.28 6.86-11.15 13.21-12.74Z"/>
<path fill="#efd42b" d="m533.76,155.94l1.01,.09c7.76,13.85 12.96,28.94 18.47,43.79 6.31,16.81 11.87,33.88 16.91,51.1 8.1,24.99 13.4,50.93 23.73,75.16 8.66,21.57 25.49,40.23 47.4,48.66 11.32,4.68 23.64,5.88 35.72,7.14 13.95,.85 28.07,2.21 41.99,.18 47.65-.24 95.58-.58 142.72,7.3 14.07,3.02 30.86,5.6 39.46,18.44 6.17,10.69 .7,23.93-6.76,32.57-5.16,5.84-9.81,12.16-15.68,17.35-36.33,33.08-76.66,61.52-117.95,88.06-9.36,6.94-19.16,13.35-27.73,21.27-15.03,13.13-26.16,31.56-28.43,51.66-4.8,32.95 9.38,63.73 19.61,94.11 10.02,28.9 18.63,58.37 25.75,88.18 4.67,20.7 9.14,41.72 8.99,63.02-1.39,7.39-3.1,15.63-9.29,20.62-8.87,7.11-21.56,4.78-31.37,.99-17.02-7.15-33.26-16.08-48.63-26.28-27.32-17.59-53.7-36.6-78.97-57.02-17.58-13.76-34.77-28.91-55.91-36.97-14.95-5.43-31.52-6.96-47.16-3.91-25.45,5.01-46.01,21.68-65.95,37.19-34.78,26.47-70.53,51.86-108.68,73.33-15.32,7.49-30.59,16.81-48.03,18.03-11.44,.08-21.25-9.45-22.45-20.65-2.72-23.24 4.32-45.95 9.43-68.36 8.36-31.52 18.61-62.41 30.17-92.91 6.73-18.24 14.2-36.51 15.96-56.08 5.23-29.8-8.36-60.87-31.75-79.39-6.14-5.97-13.57-10.36-20.13-15.82-37.05-25.08-73.5-51.34-107.15-80.85-12.65-11.31-25.65-22.55-35.43-36.6-5.87-8.12-10.43-19.16-6.26-29.04 7.06-12.61 22.28-16.51 35.56-18.52 43.6-7.57 88.02-5.7 132.07-5.68 11.91,2.11 24.11-.37 36.01,1.88 16.8-1.06 34.18-1.34 50-7.97 14.84-5.32 27.25-15.85 36.66-28.32 12.25-17.55 18.59-38.28 24.59-58.58 .48-.05 1.45-.15 1.93-.2 .19,1.05 .35,2.13-.08,3.15-4.64,15.66-9.49,31.43-17.11,45.94-6.77,13.73-17.03,25.84-30.23,33.76-19.32,12.08-42.68,14.12-64.86,15.07-35.98,1.05-71.96-3.82-107.9-.86-18.37,.09-36.73,1.58-54.91,4.21-10.36,2.02-21.31,3.46-30.13,9.78-7.9,5.01-11.47,16.47-6.64,24.8 6.97,15.87 20.87,27.08 32.95,38.95 20.8,18.37 42.41,35.85 64.91,52.11 24.15,19.1 51.6,33.81 74.45,54.58 14.88,14.02 25.87,32.93 27.4,53.63 3.22,20.26-2.17,40.51-8.44,59.63-10.18,26.88-20.02,53.91-28.66,81.32-8.51,30.1-18.63,60.46-19.02,92.02-.94,6.92 2.06,13.58 6.1,18.98 7.11,6.37 17.22,7.09 25.86,3.83 27.46-9.2 51.4-26.01 76.03-40.79 3.74-1.29 6.74-4.03 10.11-6 20.2-14.01 40.2-28.34 59.66-43.38 18.07-13.68 36.48-28.67 59.02-33.97 15.74-4.44 32.73-3.28 48.27,1.41 24.97,7.41 44.19,26.02 64.39,41.54 19.14,15.01 38.6,29.61 58.62,43.42 21.25,13.92 42.69,28.04 66.35,37.57 9.7,3.83 22.5,4.2 29.92-4.34 4.48-6.86 6.83-15.05 5.8-23.28-2.25-38.32-13.63-75.3-24.12-112.01-4.1-10.01-5.89-20.75-10.26-30.65-8.01-24.07-18.27-47.8-20.63-73.31-.97-16.75 1.1-34.01 8.94-49.04 12.34-24.02 36.37-38.42 58.02-52.98 31.24-20.27 61.49-42.08 90.17-65.84 13.26-11.7 27.14-23.1 37.21-37.81 3.91-6.52 6.35-14.13 4.03-21.73-3.01-8.69-11.55-13.42-19.71-16.28-14.44-4.21-29.34-6.64-44.32-7.82-43.6-5.08-87.58-3.17-131.38-3.52-17.38,.32-34.95,.08-51.93-4.02-18.37-3.9-35.64-13.97-46.9-29.16-12.94-16.27-18.72-36.65-24.71-56.17-12.97-46.34-26.47-92.77-46.58-136.59-.5-1-.3-2.07-.12-3.12Z"/>
<path fill="#fce12f" d="m497.3,170.28l4.49-.15c6.64,5.66 9.64,14.03 13.52,21.57 16.12,37.59 27.88,76.85 38.71,116.24 7.74,28.09 13.86,58.01 33.08,80.97 23.51,18.24 54.16,21.64 82.89,23.11 30.04,.71 59.99-1.2 90.02-1.03 29.71,1.43 60.02,.89 88.92,9.1 3.27,1.37 7.77,3.57 7.06,7.86-2.55,5.95-7.64,10.51-12.73,14.31-8.79,9.02-19.37,15.97-29,24.01-30.15,23.37-62.13,44.22-94.25,64.75-13.34,8.89-27.52,17.95-35.98,32.01-10.21,19.59-13.72,42.04-13.05,63.97-.77,17.58 3.25,34.84 7.32,51.81 15.03,43.35 31.95,86.23 41.72,131.19 2.34,11.08 5.02,22.37 3.76,33.76-2.66,4.67-8.58,3.17-12.43,.84-46.86-26.51-88.38-61.15-130.05-94.94-13.15-11.38-29.56-18.38-46.63-21.25-33.83-5.53-71.82-3.74-100.86,16.42-18.22,14.1-36.11,28.62-54.61,42.38-25.95,18.23-51.31,37.54-79.2,52.78-6.51,2.74-12.14,8.63-19.72,7.81-5.09-3.11-3.15-9.71-3.12-14.73 7.85-41.67 22.77-81.54 38-120.98 6.75-17.38 13.29-35.1 15.17-53.8 3.25-24.66 3-50.39-5.76-73.96-3.29-9.75-9.14-18.31-16.29-25.61-13.57-12.16-29.26-21.54-44.29-31.71-39.26-26.79-77.96-54.79-112.77-87.23-3.32-3.1-6.36-6.69-8.22-10.83-.06-3.52 3.3-5.45 6.01-6.91 16.25-4.72 33.29-5.07 49.98-6.97 23,.26 46.09-1.06 69,.93 23.22,.72 46.47,1.69 69.73,.7 19.42-1.55 38.93-5.56 56.28-14.7 5.29-3.23 10.78-6.42 14.3-11.7 15.09-19.48 21.12-43.83 28.06-67 10.11-35.5 21.58-70.6 34.92-105.01 6.33-14.96 12.03-30.38 21.1-43.95 1.25-1.76 2.87-3.28 4.92-4.06Z"/>
<path fill="#f3d82c" d="m535.15,170.64c3.38,1.96 3.38,6.81 5.27,10 8.03,19.51 15.02,39.47 21.15,59.64 9.51,27.83 15.36,56.84 25.75,84.4 5.49,15.57 14.55,30.04 26.92,41.08 13.71,11.61 31.22,17.49 48.75,20.21 30.54,4.45 61.33,.03 92.01,1.01 37.19,1.09 74.67,1.72 111.38,8.57 11.42,2.65 25.04,5.86 30.31,17.73 2.8,10.48-3.01,20.2-9.66,27.75-10.27,11.73-22.03,22.06-34.09,31.9-32.09,26.9-66.99,50.15-101.99,73.04-11.87,8.57-24.26,16.97-33.37,28.64-11.65,13.43-17.33,31.07-19.41,48.48-.57,20.74 3.48,41.55 10.68,60.98 17.78,49.57 34.16,99.89 43.1,151.92 .92,8.96 2.98,18.02 1.19,27.01-.04,8.77-5.85,17.16-14.24,19.89-4.22,.47-8.52,.03-12.71-.16-22.9-7.38-42.95-21.09-63.13-33.79-31.83-21-61.7-44.72-91.45-68.52-10.2-7.03-20.16-14.81-31.9-19.14-21.57-9.35-46.51-9.2-68.36-.86-27.37,10.69-48.56,32.03-72.26,48.7-11.85,8.08-23.2,16.87-35.11,24.85-4.14,2.05-7.12,5.61-10.07,9.05-24.63,14.78-48.57,31.59-76.03,40.79-8.64,3.26-18.75,2.54-25.86-3.83-4.04-5.4-7.04-12.06-6.1-18.98 .39-31.56 10.51-61.92 19.02-92.02 8.64-27.41 18.48-54.44 28.66-81.32 6.27-19.12 11.66-39.37 8.44-59.63-1.53-20.7-12.52-39.61-27.4-53.63-22.85-20.77-50.3-35.48-74.45-54.58-22.5-16.26-44.11-33.74-64.91-52.11-12.08-11.87-25.98-23.08-32.95-38.95-4.83-8.33-1.26-19.79 6.64-24.8 8.82-6.32 19.77-7.76 30.13-9.78 18.18-2.63 36.54-4.12 54.91-4.21 35.94-2.96 71.92,1.91 107.9,.86-.21,.55-.62,1.66-.83,2.21 23.17-.82 47.65-2.57 67.85-15.14 11.29-6.33 19.14-16.88 26.97-26.84 .47,.32 1.41,.96 1.87,1.27-15.06,28.82-48.64,42.22-79.78,42.72-13.35,1.6-26.61-.71-40-.07-23.3-1.6-46.66-.79-69.99-.99-20.49-.25-40.97,1.28-61.31,3.7-10.81,1.46-22.13,2.66-31.72,8.28-4.33,1.5-6.74,5.66-8.38,9.66-3.09,11.28 4.66,21.25 11.69,29.1 34.26,35.64 74.59,64.64 114.68,93.29 12.27,8.32 24.78,16.32 36.37,25.6 15.07,11.21 27.06,26.75 33.52,44.43 9.55,28.49 2.91,59.34-7.3,86.67-17.36,45.87-33.95,92.29-43.18,140.59-1.82,10.09-3.87,20.55-1.42,30.73 .95,9.01 10.31,15.24 18.93,14.74 5.9-.76 11.6-2.5 17.02-4.92 28.3-12.88 54.55-29.82 80.05-47.49-.53-.34-1.6-1.03-2.13-1.38 19.66-12.36 37.62-27.16 56.34-40.86 17.77-14.67 37.05-28.61 59.71-34.38 22.27-5.67 46.47-2.67 67.11,7.3 23.65,12.2 42.75,31.24 64.03,46.94 28.11,20.82 55.95,42.5 86.98,58.87-.2,.52-.6,1.55-.8,2.07 7.31,4.85 15.46,8.28 23.7,11.23 8.01,2.73 18.35,3.17 23.94-4.34 4.51-6.82 5.98-15.42 4.76-23.44-3.72-35.89-13.81-70.67-23.91-105.18-4.32-10.75-6.36-22.24-11.01-32.87-9.97-29.81-23.92-60.16-19.83-92.35 .56-9.7 2.94-19.23 7.18-27.97 8.64-19.74 25.54-34.16 42.95-46.06 42.49-27.82 84.87-56.26 122.79-90.19 8.91-9.17 19.38-17.61 24.11-29.89 2.18-4.61 1.18-10.2-1.2-14.54-7.23-9.07-19.17-11.78-29.98-13.97-48.43-8.11-97.74-7.68-146.69-7.21-15.65,2.18-31.45-.18-47.11-.91-24.4-2-49.79-11.04-65.32-30.84-13.23-15.9-19.58-35.97-25.63-55.39-12.33-43.92-24.59-88.06-42.76-129.99 .24-.6 .72-1.79 .97-2.38Z"/>
<path fill="#fde22f" d="m498.21,265.17c3.33,.53 2.9,7.3 4.69,9.87 17.8,48.27 30.76,98.25 42.6,148.31 1.95,3.96-.7,13.79 7.49,10.65 60.67-.07 121.35,.13 182.01-.1 10.99-2.47 21.95,.65 32.95,1.19 1.45-.07 2.35,1.45 2.03,2.78-40.99,30.46-83.7,58.71-127.93,84.23-.05,60.61-.16,121.24 .05,181.84 5.48,13.29 10.32,26.83 15.8,40.12 .03,.75 .08,2.26 .11,3.02-21.66-16.13-41.73-34.32-62.34-51.8-60.2-.62-120.42-.17-180.62-.23-22.73,17.78-44.29,37.46-68.17,53.89 3.36-12.86 10.22-24.64 14.99-37.03 .29-58.3 .07-116.6 .11-174.9 2.95-5.74-3.75-5.38-5.98-8.01-10.98-7.03-22.08-13.89-32.91-21.13 21.39-22.54 44.28-44.28 66.09-66.66l1.87-1.18c16.65-.14 33.31,.04 49.97-.02 2.7,.61 3.97-2.99 3.96-5.02 14.27-57.56 31.15-114.87 53.23-169.82Z"/>
<path fill="#b09518" d="m686.71,341.35c34.05-2.16 68.19-1.16 102.3-1.32 12.95,1.16 25.98,.7 38.92,2.21 13.25,1.54 26.91,1.56 39.84,4.92 21.9,5.03 44.93,9.81 62.97,24.11 14.16,9.91 21.94,27.62 21.19,44.72-1.84,17.86-11.46,33.71-22.53,47.39-7.04,9.26-15.9,16.88-23.42,25.68-4.52,6.13-11.12,10.18-16.72,15.22-34.13,28.85-71.11,54.09-108.6,78.32-.42,.12-1.24,.36-1.66,.49 1.95-3.37 5.61-5.2 8.59-7.55 48.03-33.02 97.01-66.1 136.44-109.52 10.88-13.07 21.63-27.62 24.21-44.89 2.35-12.08-.28-24.99-7.19-35.16-6.4-10.29-16.9-17.06-27.4-22.58-30.81-13.51-64.93-16.11-98.05-18.78-32.47-2.51-65.06-1.39-97.6-1.6-10.44-.14-21.03,.66-31.29-1.66Z"/>
<path fill="#b5991a" d="m676.74,342.36c3.29-.46 6.6-1.67 9.97-1.01 10.26,2.32 20.85,1.52 31.29,1.66 32.54,.21 65.13-.91 97.6,1.6 33.12,2.67 67.24,5.27 98.05,18.78 10.5,5.52 21,12.29 27.4,22.58 6.91,10.17 9.54,23.08 7.19,35.16-2.58,17.27-13.33,31.82-24.21,44.89-39.43,43.42-88.41,76.5-136.44,109.52-2.98,2.35-6.64,4.18-8.59,7.55-3.96,2.92-8.15,6.48-12.97,7.99 4.83-6.93 12.49-10.89 18.77-16.27 33.6-22.7 67.16-45.63 98.15-71.86 20.69-17.57 41.34-36.18 55.05-59.95 5.13-8.85 8.26-18.8 8.98-29.01 .51-16.8-9.12-32.88-22.97-42-22.01-14.89-49.1-18.85-74.9-22.2-48.8-6.25-98.03-4.69-147.11-4.77-8.45-.03-17.13-.07-25.26-2.66Z"/>
<path fill="#bda11c" d="m662.76,343.37c1.23-1.35 3.26-1.88 4.95-1.07 7.07,3.92 15.49,3.5 23.29,4.57 51.82,.54 103.82-1.52 155.41,4.54 22.92,2.96 46.39,6.54 67.3,16.89 12.1,6.7 23.14,16.57 28.22,29.73 3.3,10.64 3.16,22.58-.81,33.06-6.2,17.75-19.78,31.3-31.92,45.11-27.64,26.72-58.12,50.49-89.83,72.2-16.8,12.64-35.33,22.89-51.23,36.72-3.75,3.23-8.24,6.17-10.13,10.96-1.14,2.29-4,2.72-6.06,3.88 5.02-9.63 14.27-15.82 22.45-22.53 14.83-11.81 31.25-21.37 46.64-32.41 29.74-21.18 58.93-43.37 85.24-68.74 12.65-12.95 25.07-27.05 32.04-43.97 3.6-8.69 4.61-18.41 3.15-27.68-3.51-16.38-16.82-28.68-31.49-35.63-23.23-10.99-49.16-13.54-74.39-16.42-48.37-5.06-97.04-3.21-145.59-3.67-9.19-.78-18.81-1.43-27.24-5.54Z"/>
<path fill="#b89d1b" d="m667.71,342.3c2.94-.2 6.1-.75 9.03,.06 8.13,2.59 16.81,2.63 25.26,2.66 49.08,.08 98.31-1.48 147.11,4.77 25.8,3.35 52.89,7.31 74.9,22.2 13.85,9.12 23.48,25.2 22.97,42-.72,10.21-3.85,20.16-8.98,29.01-13.71,23.77-34.36,42.38-55.05,59.95-30.99,26.23-64.55,49.16-98.15,71.86-6.28,5.38-13.94,9.34-18.77,16.27-2.05,2.38-4.94,4.31-8.02,5 1.89-4.79 6.38-7.73 10.13-10.96 15.9-13.83 34.43-24.08 51.23-36.72 31.71-21.71 62.19-45.48 89.83-72.2 12.14-13.81 25.72-27.36 31.92-45.11 3.97-10.48 4.11-22.42 .81-33.06-5.08-13.16-16.12-23.03-28.22-29.73-20.91-10.35-44.38-13.93-67.3-16.89-51.59-6.06-103.59-4-155.41-4.54-7.8-1.07-16.22-.65-23.29-4.57Z"/>
<path fill="#b09518" d="m192,343.91c16.85-1.52 33.84-1.04 50.72-.56 20.81,1.17 41.73,1.01 62.52,2.92-15.98,3.36-32.13,.12-48.23,.54-18.95-1.69-38.02-.44-57.02-.82-28.22,1.29-56.66,2.47-84.37,8.57-17.98,3.97-36.27,10.24-49.89,23.17-6.57,6.66-11.72,15.02-13.74,24.24-4.56,18.17 3.16,36.18 12.88,51.2 11.82,17.21 27.2,31.39 41.9,46.06 22.7,20.52 46.76,39.49 71.41,57.61 14.9,10.35 29.48,21.13 44.01,32 1.14,.87 2,2.05 2.8,3.24-39.44-25.4-77.47-53.38-112.92-84.15-7.37-6.25-14.88-12.4-21.12-19.83-12.89-15.28-27.64-29.54-35.95-48.1-8.04-15.32-9.56-34.6-1.05-50.03 7.07-14.33 21.09-23.52 35.4-29.58 15.01-6.47 31.21-9.58 47.35-11.68 2.48-.53 5.27-.17 7.49-1.57 15.59-2.3 31.88-3.15 47.81-3.23Z"/>
<path fill="#c8ad1f" d="m646.68,344.22c-.12-2.03 2.85-1.22 4.03-.93 11.93,8.29 27.31,8.78 41.3,9.8 10.61,1.16 21.38,1.49 31.99,.06 46.64-.59 93.49,.12 139.7,7.17 18.77,3.59 38.37,7.41 54.25,18.73 12.97,8.52 21.32,24.25 19.06,39.96-2.5,16.17-12.39,30.06-22.81,42.18-17.86,20.9-39.59,37.98-61.17,54.85-12.75,10.43-26.67,19.28-39.82,29.17-16.67,11.21-33.76,21.9-49.22,34.77-8.56,7.51-17.09,15.58-22.01,26.06-.9,1.41-2.73,2.08-4.2,2.8 8.9-21.93 29.71-34.77 48.01-48.05 44.63-29.72 88.98-60.89 125.91-100.07 8.46-10.04 16.78-20.73 20.76-33.42 4.02-11.45 2.28-24.34-4.21-34.55-11.23-15.44-30.28-22.55-48.25-26.73-62.83-12.87-127.3-9.59-191.01-10.07-14.53-1.33-30.03-3.38-42.31-11.73Z"/>
<path fill="#c4a91e" d="m650.71,343.29c1.64-.16 3.41-.63 5.03-.04 8.02,4.81 17.56,5.95 26.66,7.17 12.81,.93 25.79,2.64 38.6,.73 28.49-.52 56.97-.28 85.41,1.27 30.67,2.13 61.85,4.24 91.26,13.93 15.55,5.26 30.82,14.52 38.21,29.74 3.06,8.18 5.03,17.25 3.17,25.96-4.71,20.41-19.15,36.16-32.85,51.15-33.66,32.99-72.29,60.39-111.19,86.81-13.22,9.28-27.14,17.87-38.29,29.71-3.76,3.95-8.09,7.88-9.87,13.21-.93,1.63-2.99,2.82-4.87,3.11 4.92-10.48 13.45-18.55 22.01-26.06 15.46-12.87 32.55-23.56 49.22-34.77 13.15-9.89 27.07-18.74 39.82-29.17 21.58-16.87 43.31-33.95 61.17-54.85 10.42-12.12 20.31-26.01 22.81-42.18 2.26-15.71-6.09-31.44-19.06-39.96-15.88-11.32-35.48-15.14-54.25-18.73-46.21-7.05-93.06-7.76-139.7-7.17-10.61,1.43-21.38,1.1-31.99-.06-13.99-1.02-29.37-1.51-41.3-9.8Z"/>
<path fill="#c0a51d" d="m655.74,343.25c1.76,.03 5.26,.09 7.02,.12 8.43,4.11 18.05,4.76 27.24,5.54 48.55,.46 97.22-1.39 145.59,3.67 25.23,2.88 51.16,5.43 74.39,16.42 14.67,6.95 27.98,19.25 31.49,35.63 1.46,9.27 .45,18.99-3.15,27.68-6.97,16.92-19.39,31.02-32.04,43.97-26.31,25.37-55.5,47.56-85.24,68.74-15.39,11.04-31.81,20.6-46.64,32.41-8.18,6.71-17.43,12.9-22.45,22.53-1.06,1.69-3.39,2.1-5.1,2.97 1.78-5.33 6.11-9.26 9.87-13.21 11.15-11.84 25.07-20.43 38.29-29.71 38.9-26.42 77.53-53.82 111.19-86.81 13.7-14.99 28.14-30.74 32.85-51.15 1.86-8.71-.11-17.78-3.17-25.96-7.39-15.22-22.66-24.48-38.21-29.74-29.41-9.69-60.59-11.8-91.26-13.93-28.44-1.55-56.92-1.79-85.41-1.27-12.81,1.91-25.79,.2-38.6-.73-9.1-1.22-18.64-2.36-26.66-7.17Z"/>
<path fill="#cfb421" d="m639.63,344.39c.78-.04 2.32-.11 3.09-.15 14.26,10.91 33.07,12.1 50.28,13.66 13.96,.12 27.94,.35 41.9-.12 11.98-1.85 24.07-.15 36.09,.21 30.06-.35 60.17,1.68 89.91,6.19 19.21,3.62 39.62,7.06 55.5,19.39 10.75,7.51 17.04,20.73 16.07,33.81-.99,8.35-3.82,16.58-8.54,23.57-13.8,22.25-33.86,39.56-53.75,56.22-11.98,9.77-24.08,19.43-36.81,28.22-21.67,17-45.66,30.77-67.54,47.46-12.63,10.01-25.6,21.39-30.85,37.17l-.25,.89c-.49,0-1.46,.01-1.95,.02 7.69-23.16 29.14-37.55 48.22-50.94 45.26-30.84 91.34-61.75 128.66-102.31 9.64-12.14 20.7-25.27 20.4-41.67 1.86-17.86-12.51-32.83-28.09-38.92-26.17-11.36-55.25-13.02-83.27-15.77-29.54-1.76-59.1-2.79-88.7-2.17-17.41,2.12-34.98,.45-52.4-.68-13.4-1.89-27.26-5.34-37.97-14.08Z"/>
<path fill="#ccb121" d="m642.72,344.24c1.33-.3 2.65-.31 3.96-.02 12.28,8.35 27.78,10.4 42.31,11.73 63.71,.48 128.18-2.8 191.01,10.07 17.97,4.18 37.02,11.29 48.25,26.73 6.49,10.21 8.23,23.1 4.21,34.55-3.98,12.69-12.3,23.38-20.76,33.42-36.93,39.18-81.28,70.35-125.91,100.07-18.3,13.28-39.11,26.12-48.01,48.05-.68,.94-1.62,1.33-2.8,1.18 5.25-15.78 18.22-27.16 30.85-37.17 21.88-16.69 45.87-30.46 67.54-47.46 12.73-8.79 24.83-18.45 36.81-28.22 19.89-16.66 39.95-33.97 53.75-56.22 4.72-6.99 7.55-15.22 8.54-23.57 .97-13.08-5.32-26.3-16.07-33.81-15.88-12.33-36.29-15.77-55.5-19.39-29.74-4.51-59.85-6.54-89.91-6.19-12.02-.36-24.11-2.06-36.09-.21-13.96,.47-27.94,.24-41.9,.12-17.21-1.56-36.02-2.75-50.28-13.66Z"/>
<path fill="#b4991a" d="m115.62,354.56c27.71-6.1 56.15-7.28 84.37-8.57 19,.38 38.07-.87 57.02,.82 16.1-.42 32.25,2.82 48.23-.54 3.71-.67 7.36,.71 11.02,1.1-12.82,2.69-26.24,3.41-39.26,1.78-31.32-.61-62.7-2.51-94-.15-29.26,1.35-58.97,3.7-86.9,13.15-14.52,5.56-29.22,13.91-37.03,27.9-6.48,11.08-7.99,24.8-4.3,37.08 4.12,15.85 14.4,29.08 24.59,41.53 30.03,33.93 66.32,61.53 102.54,88.48 17.67,12.96 36.16,24.85 52.86,39.09 1.46,1.27 2.64,2.83 3.63,4.49-4.87-1.72-9.67-4.99-13.4-8.64-.8-1.19-1.66-2.37-2.8-3.24-14.53-10.87-29.11-21.65-44.01-32-24.65-18.12-48.71-37.09-71.41-57.61-14.7-14.67-30.08-28.85-41.9-46.06-9.72-15.02-17.44-33.03-12.88-51.2 2.02-9.22 7.17-17.58 13.74-24.24 13.62-12.93 31.91-19.2 49.89-23.17Z"/>
<path fill="#ad9117" d="m95.21,355.12c15.7-4.82 32.58-6.87 48.98-7.98-2.22,1.4-5.01,1.04-7.49,1.57-16.14,2.1-32.34,5.21-47.35,11.68-14.31,6.06-28.33,15.25-35.4,29.58-8.51,15.43-6.99,34.71 1.05,50.03 8.31,18.56 23.06,32.82 35.95,48.1-8.41-4.53-13.06-13.7-20.2-19.85-3.22-4.65-8.12-8.1-10.59-13.27-5.42-11.18-12.35-22.15-13.41-34.86-3.4-17.58 4.6-36.01 17.99-47.39 8.52-8.43 20.13-12.11 30.47-17.61Z"/>
<path fill="#b89d1b" d="m316.26,347.37c2.72-1.1 5.05-.76 6.98,1.01-18.87,5.29-38.87,3.66-58.23,2.66-22.65-.11-45.4-2.54-68.01-.22-28.25,.74-56.73,2.28-84.32,8.81-18.14,4.1-36.4,11.86-48.3,26.73-7.55,10.85-11.63,25-7.83,37.99 4.69,20.53 18.99,37.06 33.1,51.98 6.24,8.44 15,14.31 22.15,21.87 22.99,20.58 47.26,39.72 72.39,57.61 11.04,9.17 23.76,16 34.76,25.22 9.75,7.4 20.47,14.58 27.19,24.91-2.83-1.27-5.77-2.79-7.75-5.22-.99-1.66-2.17-3.22-3.63-4.49-16.7-14.24-35.19-26.13-52.86-39.09-36.22-26.95-72.51-54.55-102.54-88.48-10.19-12.45-20.47-25.68-24.59-41.53-3.69-12.28-2.18-26 4.3-37.08 7.81-13.99 22.51-22.34 37.03-27.9 27.93-9.45 57.64-11.8 86.9-13.15 31.3-2.36 62.68-.46 94,.15 13.02,1.63 26.44,.91 39.26-1.78Z"/>
<path fill="#ac9117" d="m867.77,347.16c10.98,.24 21.57,3.53 32.24,5.82 3.26,.82 6.88,1.29 9.79,3.17 9.68,4.94 19.18,10.48 27.45,17.6 15.25,13.93 20.69,36.94 13.9,56.36-2.14,7.38-6.82,13.69-9.19,20.97-7.6,11.48-17.9,21.37-27.72,31.16-2.87,2.04-4.55,6.32-8.26,6.82 7.52-8.8 16.38-16.42 23.42-25.68 11.07-13.68 20.69-29.53 22.53-47.39 .75-17.1-7.03-34.81-21.19-44.72-18.04-14.3-41.07-19.08-62.97-24.11Z"/>
<path fill="#bda11c" d="m323.24,348.38c2.66-.53 5.35-.56 8.06-.1-17.63,7.64-37.58,5.34-56.31,5.73-29.28-1.81-58.67-.77-88-.98-26.18,1.77-52.6,3.21-78.1,9.86-15.69,4.58-32.1,11.39-42.2,24.83-10.46,12.85-11.09,31.43-4.62,46.26 10.18,23.44 29.43,41.05 47.17,58.78 20.53,19 42.52,36.37 64.94,53.07 22.95,17.77 48.16,32.68 69.53,52.44 3.13,3.62 6.29,7.28 8.64,11.48-2.12-.99-4.87-1.93-6.21-3.81-6.72-10.33-17.44-17.51-27.19-24.91-11-9.22-23.72-16.05-34.76-25.22-25.13-17.89-49.4-37.03-72.39-57.61-7.15-7.56-15.91-13.43-22.15-21.87-14.11-14.92-28.41-31.45-33.1-51.98-3.8-12.99 .28-27.14 7.83-37.99 11.9-14.87 30.16-22.63 48.3-26.73 27.59-6.53 56.07-8.07 84.32-8.81 22.61-2.32 45.36,.11 68.01,.22 19.36,1 39.36,2.63 58.23-2.66Z"/>
<path fill="#c1a51d" d="m331.3,348.28c1.4-.88 2.92,.13 3.95,1.1-24.98,10.42-52.93,6.11-79.24,5.63-33.01,.28-66.1-1.23-99,2.15-22.73,2.43-46.09,5.02-67.02,14.83-12.42,5.84-23.52,15.78-27.86,29.1-4.68,12.94-1.15,27.06 5.02,38.82 8.74,16.23 21.69,29.46 34.06,42.87 17.31,15.76 34.63,31.58 53.42,45.61 29.11,23.86 61.96,42.82 90.1,67.88 3.7,5.21 9.58,9.34 11.36,15.72-1.78,.38-2.8-1.01-3.74-2.24-2.35-4.2-5.51-7.86-8.64-11.48-21.37-19.76-46.58-34.67-69.53-52.44-22.42-16.7-44.41-34.07-64.94-53.07-17.74-17.73-36.99-35.34-47.17-58.78-6.47-14.83-5.84-33.41 4.62-46.26 10.1-13.44 26.51-20.25 42.2-24.83 25.5-6.65 51.92-8.09 78.1-9.86 29.33,.21 58.72-.83 88,.98 18.73-.39 38.68,1.91 56.31-5.73Z"/>
<path fill="#c4a91e" d="m335.25,349.38c1.55-.79 3.37-.22 5.02-.13-11.28,6.48-24.6,7.39-37.27,8.62-30.04,.89-59.97-2.36-90.01-1.86-33.78,1.49-67.95,2.05-101.02,9.95-13.62,3.91-27.48,9.09-37.76,19.25-6.36,6.9-10.75,15.54-12.16,24.85-1.24,14.92 5.6,29.08 13.89,41.01 17.39,23.05 38.88,42.59 61.06,60.94 26.61,22.02 54.52,42.49 83.06,61.94 14.88,11.76 32.36,22.92 39.99,41.03-1.46-.73-3.57-1.14-3.96-2.99-1.78-6.38-7.66-10.51-11.36-15.72-28.14-25.06-60.99-44.02-90.1-67.88-18.79-14.03-36.11-29.85-53.42-45.61-12.37-13.41-25.32-26.64-34.06-42.87-6.17-11.76-9.7-25.88-5.02-38.82 4.34-13.32 15.44-23.26 27.86-29.1 20.93-9.81 44.29-12.4 67.02-14.83 32.9-3.38 65.99-1.87 99-2.15 26.31,.48 54.26,4.79 79.24-5.63Z"/>
<path fill="#c8ac1f" d="m340.27,349.25c1.58-.6 3.33-.11 4.96,.04-9.07,6.96-20.72,8.31-31.62,10.19-30.54,2.02-61.06-1.15-91.61-.48-27.36-.38-54.73,.79-81.89,4.2-18.78,2.73-38.22,5.95-54.47,16.41-9.23,5.72-17.19,14.55-19.68,25.35-3.6,13.46 1.01,27.45 8.28,38.81 13.65,21.41 32.33,39.06 51.44,55.57 30.25,26.93 63.63,49.96 96.49,73.52 16.03,12.37 34.29,24.47 41.87,44.17-1.4-.28-3.47-.54-3.99-2.05-7.63-18.11-25.11-29.27-39.99-41.03-28.54-19.45-56.45-39.92-83.06-61.94-22.18-18.35-43.67-37.89-61.06-60.94-8.29-11.93-15.13-26.09-13.89-41.01 1.41-9.31 5.8-17.95 12.16-24.85 10.28-10.16 24.14-15.34 37.76-19.25 33.07-7.9 67.24-8.46 101.02-9.95 30.04-.5 59.97,2.75 90.01,1.86 12.67-1.23 25.99-2.14 37.27-8.62Z"/>
<path fill="#ccb020" d="m345.23,349.29c1.02,.28 2.01,.62 2.99,1.04-15.65,11.7-36.61,11.23-55.21,12.7-40.5-1.96-81.19-3.35-121.71-.73-23.53,2.19-47.67,3.61-70.01,11.97-10.82,4.46-22.2,10.23-28.32,20.71-7.08,10.47-7.15,24.29-2.8,35.87 6.58,16.41 18.53,29.79 30.56,42.42 38.8,39.32 84.65,70.54 129.27,102.73 15.58,11.64 31.67,24.91 38.02,44.01-1.45-.76-3.49-1.21-3.98-2.98-7.58-19.7-25.84-31.8-41.87-44.17-32.86-23.56-66.24-46.59-96.49-73.52-19.11-16.51-37.79-34.16-51.44-55.57-7.27-11.36-11.88-25.35-8.28-38.81 2.49-10.8 10.45-19.63 19.68-25.35 16.25-10.46 35.69-13.68 54.47-16.41 27.16-3.41 54.53-4.58 81.89-4.2 30.55-.67 61.07,2.5 91.61,.48 10.9-1.88 22.55-3.23 31.62-10.19Z"/>
<path fill="#cfb421" d="m348.22,350.33c1.33-.43 2.7-.44 4.12-.02-16.01,12.1-37.08,14.05-56.45,14.4-32.92-1.69-65.92-1.95-98.9-1.71-26.08,1.52-52.36,2.55-77.99,8.03-12.07,2.46-23.93,6.76-34.03,13.93-9.44,6.63-14.97,17.69-15.98,29.04 .18,18.62 11.77,34.13 23.31,47.72 34.75,37.1 75.44,67.91 116.9,97.08 14.53,11.05 30.6,20.4 43.08,33.92 7.87,7.82 15.51,17.07 17.87,28.19-.53-.23-1.59-.67-2.13-.9-6.35-19.1-22.44-32.37-38.02-44.01-44.62-32.19-90.47-63.41-129.27-102.73-12.03-12.63-23.98-26.01-30.56-42.42-4.35-11.58-4.28-25.4 2.8-35.87 6.12-10.48 17.5-16.25 28.32-20.71 22.34-8.36 46.48-9.78 70.01-11.97 40.52-2.62 81.21-1.23 121.71,.73 18.6-1.47 39.56-1 55.21-12.7Z"/>
<path fill="#a88d16" d="m73.26,362.2c6.51-3.98 14.44-5.88 21.95-7.08-10.34,5.5-21.95,9.18-30.47,17.61-13.39,11.38-21.39,29.81-17.99,47.39 1.06,12.71 7.99,23.68 13.41,34.86-2.34-.31-2.68-3.85-4.32-4.87-3.02-4.61-6.58-9.03-8.69-14.13-3.1-11.56-6.11-23.73-2.73-35.6 3.03-13.33 11.41-25.53 22.69-33.22 2.21-1.46 4.3-3.07 6.15-4.96Z"/>
<path fill="#a88c16" d="m909.8,356.15c6.74,.25 13.22,3.93 19.23,6.82 3.85,4.17 8.63,7.34 12.71,11.28 10.22,11.9 16.65,27.61 14.99,43.46-.41,5.98-3.32,11.42-3.83,17.36-3.14,5.35-5.65,12.24-10.94,16.01 2.37-7.28 7.05-13.59 9.19-20.97 6.79-19.42 1.35-42.43-13.9-56.36-8.27-7.12-17.77-12.66-27.45-17.6Z"/>
<g fill="#a38714">
<path d="m56.35,371.25c4.41-4.48 10.88-7.61 16.91-9.05-1.85,1.89-3.94,3.5-6.15,4.96-11.28,7.69-19.66,19.89-22.69,33.22-3.38,11.87-.37,24.04 2.73,35.6l-.88-.22c-2.04-5.2-5.89-9.97-6.29-15.69-.54-10.28 .03-20.9 4.79-30.26 2.35-7.09 7.95-12.21 11.58-18.56Z"/>
<path d="m929.03,362.97c5.27,1.88 10.57,4.36 14.71,8.22 5.95,8.17 12.17,16.68 14.26,26.79 2.42,7.16 1.16,14.69 1.89,22.03-.73,5.19-3.9,11.08-6.99,15.06 .51-5.94 3.42-11.38 3.83-17.36 1.66-15.85-4.77-31.56-14.99-43.46-4.08-3.94-8.86-7.11-12.71-11.28Z"/>
</g>
<path fill="#9d8213" d="m43.02,383.04c3.78-4.42 7.72-9.71 13.33-11.79-3.63,6.35-9.23,11.47-11.58,18.56-4.76,9.36-5.33,19.98-4.79,30.26l-.79-.27c-3.31-12.15-4.26-26.25 3.83-36.76Z"/>
<path fill="#9d8113" d="m943.74,371.19c5.61,2.62 9.94,7.6 13.72,12.41 6.93,10.61 7,24.42 3.32,36.28l-.89,.13c-.73-7.34 .53-14.87-1.89-22.03-2.09-10.11-8.31-18.62-14.26-26.79Z"/>
<path fill="#ceb321" d="m731.83,614.86c1.45,.25 2.18,2.58 1.8,3.87-5.12,16.41-1.69,33.87 2.72,50.04 20.2,58.91 41.37,118.34 48.08,180.63 1.68,17.07 1.58,35.85-8.38,50.64-5.39,9.29-15.61,15.36-26.12,16.86-17.37,3.4-34.26-4.13-49.78-11.08-33.19-15.9-63.44-37.27-93.15-58.82-23.5-16.77-44.7-36.82-70.02-50.95-8.24-3.73-17.15-7.69-26.34-7.39-1.86,.76-3.21-1.53-3.71-2.98 4.36-1.26 8.76,.64 13.1,1.28 15.45,4.01 29.06,12.83 41.8,22.18 23.28,17.76 45.88,36.47 70.17,52.86 23.59,16.36 47.94,31.93 74.13,43.86 12.73,5.35 26.4,10.71 40.48,8.64 12.43-1.03 24.28-8.94 29.68-20.2 5.7-11.83 7.61-25.42 5.99-38.4-2.85-39.17-13.14-77.33-24.41-114.8-7.44-25.92-17.65-50.93-25.25-76.78-4.45-16.05-6.45-33.48-.79-49.46Z"/>
<path fill="#caaf20" d="m736.35,668.77c-4.41-16.17-7.84-33.63-2.72-50.04 .99,.88 1.4,1.93 1.24,3.15-4.53,15.01-.6,30.54 3.03,45.23 6.91,22.43 15.69,44.25 22.23,66.79 11.42,37.31 22.01,75.16 25.9,114.1 1.69,13.51 1.87,27.58-2.39,40.68-3.41,9.48-8.66,19.08-17.73,24.18-12.83,8.53-29.44,7.6-43.69,3.76-26.66-8.76-50.74-23.54-74.22-38.62-24.09-15.94-47.36-33.07-70-51.01-14.72-11.2-28.94-23.53-46.1-30.9-6.07-2.48-12.24-5.21-18.94-5.13-1.12-.29-1.89-1.05-2.32-2.3 9.19-.3 18.1,3.66 26.34,7.39 25.32,14.13 46.52,34.18 70.02,50.95 29.71,21.55 59.96,42.92 93.15,58.82 15.52,6.95 32.41,14.48 49.78,11.08 10.51-1.5 20.73-7.57 26.12-16.86 9.96-14.79 10.06-33.57 8.38-50.64-6.71-62.29-27.88-121.72-48.08-180.63Z"/>
<path fill="#c7ab1f" d="m734.87,621.88c1.66,.45 1.78,3.32 1.73,4.86-4.35,17.14 2.03,34.54 6.77,50.94 9.7,27.48 19.14,55.08 26.88,83.19 8.83,32.45 17.05,65.4 18.79,99.12 .81,16.84-2.13,35.32-13.74,48.3-6.74,7.89-16.91,11.85-26.98,13.1-13.35,2.14-26.28-2.64-38.62-7.09-36.44-15.31-68.89-38.29-100.87-61.15-7.65-5.41-14.55-11.97-23.03-16.07-19.42-13.99-37.08-31.83-60.13-39.73-2.16-.79-4.4-1.29-6.68-1.52-2.61-.57-4.76-2.6-6.03-4.87 6.7-.08 12.87,2.65 18.94,5.13 17.16,7.37 31.38,19.7 46.1,30.9 22.64,17.94 45.91,35.07 70,51.01 23.48,15.08 47.56,29.86 74.22,38.62 14.25,3.84 30.86,4.77 43.69-3.76 9.07-5.1 14.32-14.7 17.73-24.18 4.26-13.1 4.08-27.17 2.39-40.68-3.89-38.94-14.48-76.79-25.9-114.1-6.54-22.54-15.32-44.36-22.23-66.79-3.63-14.69-7.56-30.22-3.03-45.23Z"/>
<path fill="#cdb221" d="m269.34,628.74c-.34-1.31 .36-3.51 1.76-3.87 5.98,17.61 1.13,36.56-3.52,53.89-12.67,35.14-25.72,70.17-35.75,106.18-6.71,26.26-13.86,52.79-14.57,80.05 .98,8.74 .81,17.9 4.75,25.99 4.45,10.78 13.38,20.23 25.01,22.95 17.72,5.24 35.72-2.12 51.94-9.04 53.55-24.93 100.95-60.69 147.93-96.04 16.51-11.61 35.15-23.44 56.1-23.04-.15,1.87-2.45,2.54-3.96,3.06-24.05,2.03-43.97,17.64-62.63,31.57-8.29,6.73-17.48,12.35-25.55,19.32-10.28,5.3-19.38,12.6-28.8,19.27-27.03,17.94-54.51,35.52-84.21,48.78-9.92,4.07-19.94,8.31-30.72,9.45-13.31,2.69-27.96-1.22-37.93-10.46-11.77-12.11-14.07-29.69-14.15-45.81 2.52-34.51 12.16-67.96 21.9-101.01 8.54-27.74 19-54.85 28.65-82.21 4.21-15.74 8.41-32.98 3.75-49.03Z"/>
<path fill="#c3a81e" d="m743.37,677.68c-4.74-16.4-11.12-33.8-6.77-50.94 .96,.88 1.44,1.96 1.44,3.23-2.58,15.97 2.83,31.77 7.09,46.98 19.71,56.4 39,113.73 45.3,173.45 1.9,18.23 .82,37.93-9.23,53.82-8.85,14.02-26.03,20.94-42.21,19.79-11.07-1.24-21.93-4.32-32.08-8.89-42.03-18.51-79.29-45.81-115.99-73.03-1.83-1.52-3.97-2.87-5.12-5.01 8.48,4.1 15.38,10.66 23.03,16.07 31.98,22.86 64.43,45.84 100.87,61.15 12.34,4.45 25.27,9.23 38.62,7.09 10.07-1.25 20.24-5.21 26.98-13.1 11.61-12.98 14.55-31.46 13.74-48.3-1.74-33.72-9.96-66.67-18.79-99.12-7.74-28.11-17.18-55.71-26.88-83.19Z"/>
<path fill="#caaf20" d="m269.34,628.74c4.66,16.05 .46,33.29-3.75,49.03-9.65,27.36-20.11,54.47-28.65,82.21-9.74,33.05-19.38,66.5-21.9,101.01 .08,16.12 2.38,33.7 14.15,45.81 9.97,9.24 24.62,13.15 37.93,10.46 10.78-1.14 20.8-5.38 30.72-9.45 29.7-13.26 57.18-30.84 84.21-48.78 9.42-6.67 18.52-13.97 28.8-19.27-4.32,4.5-9.64,7.91-14.89,11.23-24.81,18.09-50.87,34.53-77.95,49.02-16.76,8.22-33.8,17.38-52.69,19.35-17.02,3.15-35.99-4.91-44.26-20.4-9.66-17.5-8.49-38.51-5.73-57.66 8.92-55.08 28.08-107.71 47.11-159.94 4.84-15.84 9.48-32.91 5.69-49.5-.14-1.21 .26-2.25 1.21-3.12Z"/>
<path fill="#c0a41d" d="m738.04,629.97c1.68,.64 1.36,3.39 1.91,4.96-1.71,20.6 7.17,39.78 13.18,58.97 10.52,28.86 19.13,58.37 26.9,88.09 6.16,25.63 11.68,51.61 13,78 1.21,19.94-3.24,42.36-19.26,55.78-10.45,8.48-24.45,11.49-37.66,10.03-15.93-2.23-30.83-8.69-45.12-15.77-41.54-21.43-79.25-49.42-116.15-77.91-11.91-9.2-23.42-19.13-36.83-26.12-4.86-2.35-9.56-5.37-15-6.14-1.79-.56-3.28-2.35-4.02-4.03 2.28,.23 4.52,.73 6.68,1.52 23.05,7.9 40.71,25.74 60.13,39.73 1.15,2.14 3.29,3.49 5.12,5.01 36.7,27.22 73.96,54.52 115.99,73.03 10.15,4.57 21.01,7.65 32.08,8.89 16.18,1.15 33.36-5.77 42.21-19.79 10.05-15.89 11.13-35.59 9.23-53.82-6.3-59.72-25.59-117.05-45.3-173.45-4.26-15.21-9.67-31.01-7.09-46.98Z"/>
<path fill="#c7ac1f" d="m266.37,635.73c-.37-1.33 .34-3.52 1.76-3.87 3.79,16.59-.85,33.66-5.69,49.5-19.03,52.23-38.19,104.86-47.11,159.94-2.76,19.15-3.93,40.16 5.73,57.66 8.27,15.49 27.24,23.55 44.26,20.4 18.89-1.97 35.93-11.13 52.69-19.35 27.08-14.49 53.14-30.93 77.95-49.02 5.25-3.32 10.57-6.73 14.89-11.23 8.07-6.97 17.26-12.59 25.55-19.32 18.66-13.93 38.58-29.54 62.63-31.57-1.02,1.84-2.61,4.15-4.95,4.11-21.19,2.81-38.44,16.7-55.08,29.02-34.6,26.32-70.35,51.23-107.96,73.08-15.8,8.78-32.04,16.92-49.22,22.66-15.12,4.41-32.62,6.62-46.77-1.81-12.24-6.2-19.09-19.33-21.64-32.31-4.42-24.2 .74-48.68 5.95-72.3 8.49-37.5 20.95-73.95 34.05-110.05 5.31-13.97 10.71-28.1 12.93-42.96 .85-7.47 2.71-15.28 .03-22.58Z"/>
<path fill="#bca11c" d="m739.95,634.93c1.74,.62 1.47,3.4 1.97,5-.12,16.9 6.29,32.92 11.51,48.72 12.95,35.79 23.76,72.37 32.48,109.43 5.53,25.87 10.53,52.24 8.91,78.82-2.13,18.21-10.45,37.72-27.81,46.1-11.94,5.2-25.73,6.77-38.41,3.51-19.48-4.52-37.43-13.7-54.83-23.29-26.85-15.97-52.86-33.35-77.71-52.28-22.43-15.99-42.38-36.23-68.08-47.04-1.71-1.17-4.34-1.96-4.97-4.04 5.44,.77 10.14,3.79 15,6.14 13.41,6.99 24.92,16.92 36.83,26.12 36.9,28.49 74.61,56.48 116.15,77.91 14.29,7.08 29.19,13.54 45.12,15.77 13.21,1.46 27.21-1.55 37.66-10.03 16.02-13.42 20.47-35.84 19.26-55.78-1.32-26.39-6.84-52.37-13-78-7.77-29.72-16.38-59.23-26.9-88.09-6.01-19.19-14.89-38.37-13.18-58.97Z"/>
<path fill="#c3a81e" d="m266.37,635.73c2.68,7.3 .82,15.11-.03,22.58-2.22,14.86-7.62,28.99-12.93,42.96-13.1,36.1-25.56,72.55-34.05,110.05-5.21,23.62-10.37,48.1-5.95,72.3 2.55,12.98 9.4,26.11 21.64,32.31 14.15,8.43 31.65,6.22 46.77,1.81 17.18-5.74 33.42-13.88 49.22-22.66 37.61-21.85 73.36-46.76 107.96-73.08 16.64-12.32 33.89-26.21 55.08-29.02-1.07,1.5-2.25,3.33-4.03,3.97-8.59,1.16-16.2,5.38-23.69,9.45-25.55,15.58-47.93,35.71-72.99,52-19.68,14.35-40.63,26.8-61.42,39.45-7.62,1.95-13.79,7.11-20.94,10.17-18.56,8.39-38.02,17.3-58.92,15.83-14.66-1.67-28.77-10.08-35.3-23.64-7.94-14.99-7.38-32.47-6.51-48.91 7.28-59.84 29.22-116.46 49.15-172.95 4.24-12.7 6.36-26.04 5.56-39.43-.01-1.25 .45-2.31 1.38-3.19Z"/>
<path fill="#c0a51d" d="m263.33,643.61c-.64-1.62 .16-3.92 1.66-4.69 .8,13.39-1.32,26.73-5.56,39.43-19.93,56.49-41.87,113.11-49.15,172.95-.87,16.44-1.43,33.92 6.51,48.91 6.53,13.56 20.64,21.97 35.3,23.64 20.9,1.47 40.36-7.44 58.92-15.83 7.15-3.06 13.32-8.22 20.94-10.17-4.5,4.27-10.59,6.22-15.95,9.16-19.24,9.9-39.9,18.9-61.9,18.84-12.27-.95-24.48-5.96-32.48-15.5-10.6-11.75-13.38-28.07-13.66-43.34-.49-13.44 2.05-26.72 4.26-39.9 9.25-47.04 24.78-92.51 41.5-137.33 5.65-14.66 10.14-30.41 9.61-46.17Z"/>
<path fill="#b89c1b" d="m741.92,639.93c1.96,1.66 2.2,5.39 2.96,8.01 2.18,18.63 9.59,36.14 15.53,53.81 12.58,36.87 23.54,74.37 31.17,112.62 2.87,15.73 5.3,31.61 5.7,47.63 1.21,16.38-2.53,33.16-11.09,47.22-10.68,16.24-31.42,23.51-50.22,20.93-13.29-1.71-25.95-6.38-37.97-12.18-50.13-23.9-94.2-58.26-138-91.97-7.95-5.92-15.73-12.37-25.01-16.11-2.65-1.52-5.61-3.14-7.01-5.99 25.7,10.81 45.65,31.05 68.08,47.04 24.85,18.93 50.86,36.31 77.71,52.28 17.4,9.59 35.35,18.77 54.83,23.29 12.68,3.26 26.47,1.69 38.41-3.51 17.36-8.38 25.68-27.89 27.81-46.1 1.62-26.58-3.38-52.95-8.91-78.82-8.72-37.06-19.53-73.64-32.48-109.43-5.22-15.8-11.63-31.82-11.51-48.72Z"/>
<path fill="#bea21c" d="m261.05,647.92c.12-1.58 .68-3.69 2.28-4.31 .53,15.76-3.96,31.51-9.61,46.17-16.72,44.82-32.25,90.29-41.5,137.33-2.21,13.18-4.75,26.46-4.26,39.9 .28,15.27 3.06,31.59 13.66,43.34 8,9.54 20.21,14.55 32.48,15.5 22,.06 42.66-8.94 61.9-18.84 5.36-2.94 11.45-4.89 15.95-9.16 20.79-12.65 41.74-25.1 61.42-39.45 25.06-16.29 47.44-36.42 72.99-52 7.49-4.07 15.1-8.29 23.69-9.45-2.07,1.53-3.74,3.83-6.06,4.88-8.06,2.05-15.49,6.15-22.33,10.8-15.56,9.85-29.52,21.93-44.66,32.37-28.59,20.92-58.05,40.72-89,58-23.46,11.86-47.9,25.33-74.99,24.92-15.85-1.56-31.92-10.12-38.98-24.93-12.16-23.43-8.18-50.91-3.82-75.89 6.55-32.36 15.81-64.12 26.39-95.37 6.71-20.71 15.51-40.7 21.49-61.64 2.05-7.21 3.18-14.67 2.96-22.17Z"/>
<path fill="#b99e1b" d="m258.27,655.64c-.09-2.63 1.19-5.91 2.78-7.72 .22,7.5-.91,14.96-2.96,22.17-5.98,20.94-14.78,40.93-21.49,61.64-10.58,31.25-19.84,63.01-26.39,95.37-4.36,24.98-8.34,52.46 3.82,75.89 7.06,14.81 23.13,23.37 38.98,24.93 27.09,.41 51.53-13.06 74.99-24.92 30.95-17.28 60.41-37.08 89-58 15.14-10.44 29.1-22.52 44.66-32.37 6.84-4.65 14.27-8.75 22.33-10.8-1.51,2.38-4.32,4.07-6.89,5.19-8.98,2.8-16.47,8.68-24.06,14.01-45.51,33.6-91.12,67.85-142.03,92.98-14.91,6.79-30.1,13.71-46.61,15.49-20.34,3.14-43.27-6.37-52.39-25.49-11.15-21.86-8.92-47.46-4.83-70.91 7.09-40.02 19.48-78.84 32.77-117.16 5.55-14.91 11.08-29.83 15.88-45 1.03-5.05 2.54-10.14 2.44-15.3Z"/>
<path fill="#b49819" d="m744.88,647.94l.82,.3c1.84,6.31 5.13,12.17 6.4,18.64 .78,8.93 4.73,16.99 7.51,25.37 18.22,54.53 36.02,110.06 40.27,167.75 1.05,21.16-3.61,44.3-19.13,59.72-7.53,5.91-15.98,11.36-25.76,12.26-19.37,3.7-38.55-3.11-55.98-11.02-46.25-21.52-87.35-52.42-127.65-83.35-6.65-5-12.96-10.99-20.43-14.66-3.65-.93-5.45-4.58-8.62-6.33-2.47-2.15-5.86-3.62-7.32-6.73 9.28,3.74 17.06,10.19 25.01,16.11 43.8,33.71 87.87,68.07 138,91.97 12.02,5.8 24.68,10.47 37.97,12.18 18.8,2.58 39.54-4.69 50.22-20.93 8.56-14.06 12.3-30.84 11.09-47.22-.4-16.02-2.83-31.9-5.7-47.63-7.63-38.25-18.59-75.75-31.17-112.62-5.94-17.67-13.35-35.18-15.53-53.81Z"/>
<path fill="#b59a1a" d="m253,667.93c.83-4.28 2.41-9.06 5.27-12.29 .1,5.16-1.41,10.25-2.44,15.3-4.8,15.17-10.33,30.09-15.88,45-13.29,38.32-25.68,77.14-32.77,117.16-4.09,23.45-6.32,49.05 4.83,70.91 9.12,19.12 32.05,28.63 52.39,25.49 16.51-1.78 31.7-8.7 46.61-15.49 50.91-25.13 96.52-59.38 142.03-92.98 7.59-5.33 15.08-11.21 24.06-14.01-2.96,3.72-6.77,6.87-11,9.04-10.43,4.67-18.66,12.72-28.1,18.94-29.68,22.38-60.23,43.65-92,62.96-18.76,10.83-38.05,20.93-58.34,28.62-15.53,4.92-32.69,8.96-48.62,3.31-11.75-3.16-22.09-11.29-27.95-21.95-7.87-13.48-10.02-29.58-9.93-44.93 1.87-32.85 10.37-64.87 19.51-96.34 8.54-28.67 18.76-56.8 29.01-84.9 1.51-4.5 2.88-9.11 3.32-13.84Z"/>
<path fill="#af9418" d="m752.1,666.88c4.52,8.41 6.61,18.41 10.5,27.34 14.75,43.79 28.5,88.13 36.63,133.71 1.15,10.21 4.14,20.42 3.52,30.74-.49,14.25-1.12,28.96-6.72,42.34-6.5,17.49-22.68,31.27-41.39,33.59-9.52,.69-19.31,1.11-28.58-1.59-8.98-1.81-17.32-5.79-26.12-8.11-17.68-7.16-33.67-17.99-49.87-28-33.77-22-66.12-46.16-97.33-71.64-.75-.67-1.35-1.44-1.81-2.31 7.47,3.67 13.78,9.66 20.43,14.66 40.3,30.93 81.4,61.83 127.65,83.35 17.43,7.91 36.61,14.72 55.98,11.02 9.78-.9 18.23-6.35 25.76-12.26 15.52-15.42 20.18-38.56 19.13-59.72-4.25-57.69-22.05-113.22-40.27-167.75-2.78-8.38-6.73-16.44-7.51-25.37Z"/>
<path fill="#b09518" d="m245.84,684.91c2.67-5.47 3.68-12.24 7.16-16.98-.44,4.73-1.81,9.34-3.32,13.84-10.25,28.1-20.47,56.23-29.01,84.9-9.14,31.47-17.64,63.49-19.51,96.34-.09,15.35 2.06,31.45 9.93,44.93 5.86,10.66 16.2,18.79 27.95,21.95 15.93,5.65 33.09,1.61 48.62-3.31 20.29-7.69 39.58-17.79 58.34-28.62 31.77-19.31 62.32-40.58 92-62.96 9.44-6.22 17.67-14.27 28.1-18.94-11.2,10.89-24.67,19.36-36.93,29.1-26.07,19.23-52.46,38.14-80.39,54.62-7.09,4.3-14.01,9.08-21.7,12.25-24.9,11.04-50.53,25.23-78.79,22.67-19.19-2.12-36.85-15.32-43.44-33.6-9.63-24.36-5.25-50.96-1.89-76.11 .74-10.91 4.99-21.3 6.99-32 10.12-36.6 22.23-72.65 35.89-108.08Z"/>
<path fill="#ac9117" d="m202.1,825.1l.86-.11c-3.36,25.15-7.74,51.75 1.89,76.11 6.59,18.28 24.25,31.48 43.44,33.6 28.26,2.56 53.89-11.63 78.79-22.67-1.56,2.69-5.55,3.23-8.07,4.99-12.96,6.82-26.31,12.9-40.08,17.88-1.58,.51-3.16,1.12-4.85,1.1-9.02,.45-18.04,1.51-27.08,.93-17.75-2.34-34.83-13.07-42.02-29.92-5.34-9.23-6.14-20.11-8.71-30.26-1.01-17.38 3.31-34.54 5.83-51.65Z"/>
<path fill="#aa8f17" d="m796.03,901.01c5.6-13.38 6.23-28.09 6.72-42.34l1.03,.32c.27,10.23 .51,20.55-.04,30.76-4.38,14.55-11.21,28.99-23.66,38.34-12.23,9.26-28.26,11.01-43.12,10.94-2.46,.06-5.09-.2-7.21-1.58-10.05-3.3-19.85-7.32-29.45-11.75l-.36-.8c8.8,2.32 17.14,6.3 26.12,8.11 9.27,2.7 19.06,2.28 28.58,1.59 18.71-2.32 34.89-16.1 41.39-33.59Z"/>
<path fill="#a88c16" d="m196.27,876.75c2.57,10.15 3.37,21.03 8.71,30.26 7.19,16.85 24.27,27.58 42.02,29.92 9.04,.58 18.06-.48 27.08-.93-3.94,2.76-10.02,3.7-15.06,4.05-16.4,1.13-33.21-4.58-45.29-15.79-8.81-8.54-13.33-20.21-17.47-31.52-.5-5.3-.49-10.68 .01-15.99Z"/>
<path fill="#a48815" d="m780.08,928.09c12.45-9.35 19.28-23.79 23.66-38.34 .82,6.74-.85,13.63-3.03,19.93-9.24,17.15-26.17,29.82-45.63,32.44-6.12,.48-11.97-1.38-17.93-2.29l-.19-.8c14.86,.07 30.89-1.68 43.12-10.94Z"/>
<path fill="#a38714" d="m196.26,892.74c4.14,11.31 8.66,22.98 17.47,31.52 12.08,11.21 28.89,16.92 45.29,15.79l-.09,.91c-5.59,.11-11.21,1.76-16.67,1.78-13.92-3.96-27.52-10.83-36.3-22.69-2.1-2.63-3.01-6.26-5.99-8.05-2.06-2.03-1.62-5.84-2.48-8.34 .4-3.77-2-7.2-1.23-10.92Z"/>
<path fill="#9d8213" d="m755.08,942.12c19.46-2.62 36.39-15.29 45.63-32.44-1.43,9.78-7.05,19.08-14.47,25.55-9.18,6.11-20.4,8.09-31.29,7.82l.13-.93Z"/>
<path fill="#9d8113" d="m199.97,912c2.98,1.79 3.89,5.42 5.99,8.05 8.78,11.86 22.38,18.73 36.3,22.69-11.74,.62-24.55-2.3-32.56-11.45-4.37-5.59-9.37-11.92-9.73-19.29Z"/>
</svg>
